<?xml version="1.0" encoding="UTF-8" standalone="no"?>
<!-- Created with Inkscape (http://www.inkscape.org/) -->

<svg
   version="1.1"
   id="svg2"
   width="1333.3333"
   height="1333.3333"
   viewBox="0 0 1333.3333 1333.3333"
   sodipodi:docname="shutterstock_414683857.eps"
   xmlns:inkscape="http://www.inkscape.org/namespaces/inkscape"
   xmlns:sodipodi="http://sodipodi.sourceforge.net/DTD/sodipodi-0.dtd"
   xmlns="http://www.w3.org/2000/svg"
   xmlns:svg="http://www.w3.org/2000/svg">
  <defs
     id="defs6" />
  <sodipodi:namedview
     id="namedview4"
     pagecolor="#ffffff"
     bordercolor="#000000"
     borderopacity="0.25"
     inkscape:showpageshadow="2"
     inkscape:pageopacity="0.0"
     inkscape:pagecheckerboard="0"
     inkscape:deskcolor="#d1d1d1" />
  <g
     id="g8"
     inkscape:groupmode="layer"
     inkscape:label="ink_ext_XXXXXX"
     transform="matrix(1.3333333,0,0,-1.3333333,0,1333.3333)">
    <g
       id="g10"
       transform="scale(0.1)">
      <path
         d="m 9990.55,2947.83 c 3.71,-12.5 6.85,-24.15 9.45,-35.13 v 264.43 c -28.67,-51.92 -44.95,-109.7 -9.45,-229.3"
         style="fill:#fde4da;fill-opacity:1;fill-rule:nonzero;stroke:none"
         id="path12" />
      <path
         d="m 9990.55,7947.83 c 3.71,-12.5 6.85,-24.15 9.45,-35.14 v 264.44 c -28.67,-51.93 -44.95,-109.7 -9.45,-229.3"
         style="fill:#fde4da;fill-opacity:1;fill-rule:nonzero;stroke:none"
         id="path14" />
      <path
         d="M 9047.21,890.152 C 8986.52,658.191 8767.13,455.91 8518.98,256.832 8344.9,117.141 8080.92,151.32 7895.9,79.4297 7872.89,70.5 7845.82,61.2813 7815.57,52.6523 7569.23,-17.6992 7112.02,-50.3008 6920.54,408.23 c -26.3,62.961 -140.01,102.821 -225.31,162.032 v 0 c -37.23,25.847 -69.06,55.379 -85.82,92.129 -16.89,37.019 -18.49,81.371 5.02,136.648 56.05,131.711 236.94,148.262 323.28,271.581 101.66,145.22 121.52,316.73 248.24,454.98 126.24,137.71 289.73,261.25 478.97,274.88 161.99,11.67 188.07,-26.45 289.1,-120.72 208.09,-194.16 640.73,-6.58 826.7,-212.75 179.81,-199.35 316.1,-387.31 266.49,-576.858 z M 5818.07,3110.51 c -189.61,327.95 128.82,388.28 171.27,570.78 51.95,223.3 -217.76,410.43 14.23,607.22 162.8,138.09 326.1,109.23 515.93,106.55 144.89,-2.07 317.38,59.63 441.18,135.97 141.76,87.41 205.9,112.24 388.46,103.27 385.85,-18.93 713.13,-549.34 611.69,-848.65 -105,-309.87 -345.02,-113.68 -424.32,-233.78 -93.4,-141.52 -120.15,-531.11 -394.82,-678.9 -4.28,-2.31 -8.73,-4.47 -13.36,-6.52 -105.4,-46.66 -299.41,-29.18 -433.1,16.94 v 0 c -48.35,16.68 -88.88,37.09 -114.37,59.6 -203.98,180.19 -692.9,46.65 -762.79,167.52 z m 431.07,-2092.7 c -154.39,-93.021 -550.12,-43.63 -735.96,-0.51 -147.71,34.27 -299.43,188.31 -404.74,300.71 -90.18,96.23 -135.02,132.17 -169.42,244.07 -67.91,220.84 -88,671.14 289.96,779.79 187.07,53.75 164.2,358.66 416.61,303.89 177.09,-38.42 241.95,-163.39 338.14,-292.69 73.42,-98.72 204.04,-183.13 319.4,-227.15 132.1,-50.41 198.82,-164.51 232.69,-315.94 71.25,-318.57 -29.34,-637.09 -286.68,-792.17 z M 4478.73,2343.93 c -175.98,-50.53 -205.76,6.81 -376.89,-18.79 -145.32,-21.74 -107.7,-110.24 -366.66,-173.05 -167.15,-40.55 -268.05,80.06 -300.84,241.23 -31.88,156.68 -359.93,165.04 -431.04,252.52 -133.73,164.51 -143.34,615.68 311.19,633.5 148.32,5.82 65.16,277.69 144.03,402.87 150.8,239.37 256.95,252.06 454.76,343.34 281.93,130.07 559.49,-65.51 788.56,-113.46 187.22,-39.2 387.24,-216.68 387.2,-467.05 -0.06,-271.04 -177.54,-230.9 -98.49,-497.21 38.36,-129.31 17.58,-168.69 -63.13,-305.12 C 4833.11,2483.32 4654,2394.24 4478.73,2343.93 Z M 4047.21,890.152 C 3986.52,658.191 3767.13,455.91 3518.98,256.832 3344.9,117.141 3080.92,151.32 2895.9,79.4297 2872.89,70.5 2845.82,61.2813 2815.57,52.6523 2569.22,-17.6992 2112.02,-50.3008 1920.53,408.23 c -26.29,62.961 -140,102.833 -225.3,162.032 v 0 c -74.74,51.89 -127.67,118.629 -80.8,228.777 17.24,40.52 46.32,70.121 80.8,95.313 v 0 c 39.08,28.527 85.11,51.39 128.84,77.937 43.11,26.172 83.96,55.931 113.64,98.331 101.66,145.22 121.52,316.73 248.24,454.98 3.94,4.3 7.92,8.59 11.94,12.86 108.48,115.37 243.21,218.52 397.3,251.94 22.82,4.95 46.08,8.37 69.73,10.08 161.99,11.67 188.07,-26.45 289.1,-120.72 208.09,-194.16 640.73,-6.58 826.7,-212.75 179.81,-199.35 316.1,-387.31 266.49,-576.858 z M 1238.38,3045.35 c -189.6,11.32 -378.814,-6.61 -420.314,65.16 -162.945,281.83 49.317,366.02 139.168,499.95 1.637,2.43 3.231,4.89 4.778,7.35 3.101,4.94 6.023,9.95 8.754,15.05 8.183,15.28 14.589,31.32 18.57,48.43 2.437,10.47 4.164,20.86 5.269,31.17 2.215,20.63 1.938,40.95 -0.14,61.02 -0.356,3.34 -0.75,6.68 -1.195,10.01 -23.575,176.48 -179.504,333.07 -0.204,495.8 3.379,3.07 6.883,6.14 10.504,9.22 162.8,138.09 326.1,109.23 515.93,106.55 55.93,-0.8 115.97,7.98 175.73,23.36 v 0 c 75.72,19.48 150.99,49.6 216.89,84.76 16.85,8.99 33.09,18.3 48.56,27.85 128.48,79.21 193.2,107.04 340.08,104.88 15.19,-0.23 31.27,-0.77 48.38,-1.61 385.85,-18.93 713.13,-549.34 611.69,-848.65 -105,-309.87 -345.02,-113.68 -424.32,-233.78 -93.4,-141.52 -120.15,-531.11 -394.82,-678.9 -17.1,-9.2 -37.14,-16.38 -59.31,-21.71 -109.55,-26.38 -271.08,-7.91 -387.15,32.13 v 0 c -48.36,16.68 -88.88,37.09 -114.37,59.6 -82.87,73.2 -212.76,94.63 -342.48,102.36 z m 0,5000.01 c -189.6,11.31 -378.814,-6.62 -420.314,65.15 -162.945,281.83 49.317,366.02 139.168,499.95 1.637,2.44 3.231,4.89 4.778,7.36 3.101,4.93 6.023,9.95 8.754,15.04 8.183,15.28 14.589,31.32 18.57,48.43 2.437,10.47 4.164,20.85 5.269,31.17 2.215,20.62 1.938,40.95 -0.14,61.02 -0.356,3.34 -0.75,6.68 -1.195,10.01 -23.575,176.48 -179.504,333.07 -0.204,495.8 3.379,3.07 6.883,6.14 10.504,9.22 162.8,138.09 326.1,109.24 515.93,106.55 55.93,-0.8 115.97,7.98 175.73,23.36 v 0 c 75.72,19.48 150.99,49.6 216.89,84.76 16.85,8.99 33.09,18.3 48.56,27.85 128.48,79.22 193.2,107.04 340.08,104.88 15.19,-0.23 31.27,-0.77 48.38,-1.61 385.85,-18.93 713.13,-549.34 611.69,-848.65 -105,-309.87 -345.02,-113.68 -424.32,-233.78 -93.4,-141.52 -120.15,-531.11 -394.82,-678.9 -17.1,-9.2 -37.14,-16.37 -59.31,-21.71 -109.55,-26.38 -271.08,-7.91 -387.15,32.13 v 0 c -48.36,16.68 -88.88,37.09 -114.37,59.6 -82.87,73.2 -212.76,94.63 -342.48,102.37 z m 3850.66,399.68 c -0.06,-271.04 -177.54,-230.9 -98.49,-497.21 38.36,-129.31 17.58,-168.69 -63.13,-305.12 -94.31,-159.39 -273.42,-248.47 -448.69,-298.78 -175.98,-50.53 -205.76,6.81 -376.89,-18.79 -145.32,-21.74 -107.7,-110.24 -366.66,-173.05 -167.15,-40.55 -268.05,80.06 -300.84,241.23 -31.88,156.68 -359.93,165.04 -431.04,252.52 -133.73,164.51 -143.34,615.68 311.19,633.5 148.32,5.82 65.16,277.69 144.03,402.87 150.8,239.37 256.95,252.06 454.76,343.34 281.93,130.08 559.49,-65.51 788.56,-113.46 187.22,-39.2 387.24,-216.68 387.2,-467.05 z m 139.94,-1103.17 c 187.07,53.75 164.2,358.66 416.61,303.89 177.09,-38.42 241.95,-163.39 338.14,-292.69 73.42,-98.72 204.04,-183.13 319.4,-227.15 132.1,-50.41 198.82,-164.51 232.69,-315.94 71.25,-318.57 -29.34,-637.09 -286.68,-792.17 -154.39,-93.02 -550.12,-43.63 -735.96,-0.51 -147.71,34.27 -299.43,188.31 -404.74,300.71 -90.18,96.23 -135.02,132.17 -169.42,244.07 -67.91,220.84 -88,671.14 289.96,779.79 z m 774.59,1946.64 c 162.8,138.09 326.1,109.24 515.93,106.55 144.89,-2.07 317.38,59.63 441.18,135.97 141.76,87.41 205.9,112.24 388.46,103.27 385.85,-18.93 713.13,-549.34 611.69,-848.65 -105,-309.87 -345.02,-113.68 -424.32,-233.78 -93.4,-141.52 -120.15,-531.11 -394.82,-678.9 -4.28,-2.3 -8.73,-4.47 -13.36,-6.52 -105.4,-46.66 -299.41,-29.18 -433.1,16.94 v 0 c -48.35,16.68 -88.88,37.09 -114.37,59.6 -203.98,180.19 -692.9,46.65 -762.79,167.52 -189.61,327.95 128.82,388.28 171.27,570.78 51.95,223.3 -217.76,410.43 14.23,607.22 z M 4328.5,4673.03 c -110.37,135.92 -370.3,498.84 -129.49,803.78 153.76,194.71 777.02,371.65 1006.05,216.7 138.83,-93.94 218.59,-232.05 370.03,-278.55 792.04,-243.09 541.58,-945.87 -82.92,-1058.14 -133.74,-24.05 -259.4,-93.3 -500.69,-66.35 -174.11,19.47 -527.93,216.23 -662.98,382.56 z m -2407.97,735.2 c -26.29,62.97 -140,102.83 -225.3,162.04 v -0.01 c -74.74,51.89 -127.67,118.62 -80.8,228.78 17.24,40.52 46.32,70.12 80.8,95.3 v 0 c 39.08,28.54 85.11,51.4 128.84,77.94 43.11,26.17 83.96,55.95 113.64,98.34 101.66,145.22 121.52,316.73 248.24,454.98 3.94,4.3 7.92,8.59 11.94,12.86 108.48,115.37 243.21,218.52 397.3,251.94 22.82,4.95 46.08,8.37 69.73,10.08 161.99,11.67 188.07,-26.45 289.1,-120.72 208.09,-194.16 640.73,-6.58 826.7,-212.75 179.81,-199.35 316.1,-387.31 266.49,-576.86 -60.69,-231.96 -280.08,-434.24 -528.23,-633.32 -174.08,-139.69 -438.06,-105.51 -623.08,-177.4 -23.01,-8.94 -50.08,-18.15 -80.33,-26.79 -246.35,-70.35 -703.55,-102.93 -895.04,355.59 z m 6033.49,1271.53 c 208.09,-194.16 640.73,-6.58 826.7,-212.75 179.81,-199.35 316.1,-387.31 266.49,-576.86 -60.69,-231.96 -280.08,-434.24 -528.23,-633.32 -174.08,-139.69 -438.06,-105.51 -623.08,-177.4 -23.01,-8.94 -50.08,-18.15 -80.33,-26.79 -246.34,-70.35 -703.55,-102.93 -895.03,355.59 -26.3,62.96 -140.01,102.83 -225.31,162.03 v 0 c -37.23,25.85 -69.06,55.38 -85.82,92.13 -16.89,37.02 -18.49,81.37 5.02,136.65 56.05,131.71 236.94,148.26 323.28,271.58 101.66,145.22 121.52,316.73 248.24,454.98 126.24,137.71 289.73,261.25 478.97,274.88 161.99,11.67 188.07,-26.45 289.1,-120.72 z M 9199.01,476.813 C 9318.13,627.652 9718.93,767.762 10000,751.25 V 1438 c -25.33,33.89 -44.4,70.15 -60.98,124.08 -49.21,160.01 -73.26,440.47 60.98,624.16 v 598.73 c -12.12,-39.13 -36.26,-80.86 -72.58,-142.26 -94.31,-159.39 -273.42,-248.47 -448.69,-298.78 -175.98,-50.53 -205.76,6.81 -376.89,-18.79 -145.32,-21.74 -107.7,-110.24 -366.66,-173.05 -167.15,-40.55 -268.05,80.06 -300.84,241.23 -31.88,156.68 -359.93,165.04 -431.04,252.52 -133.73,164.51 -143.34,615.68 311.19,633.5 148.32,5.82 65.16,277.69 144.03,402.87 150.8,239.37 256.95,252.06 454.76,343.34 281.93,130.07 559.49,-65.51 788.56,-113.46 109.11,-22.84 222.49,-92.72 298.16,-196.55 v 574.07 c -2.85,0.29 -5.63,0.54 -8.52,0.86 -174.11,19.47 -527.93,216.23 -662.98,382.56 -110.37,135.92 -370.3,498.84 -129.49,803.78 119.12,150.83 519.92,290.95 800.99,274.44 V 6438 c -25.33,33.89 -44.4,70.15 -60.98,124.08 -49.21,160.01 -73.26,440.46 60.98,624.16 v 598.73 c -12.12,-39.13 -36.26,-80.86 -72.58,-142.26 -94.31,-159.39 -273.42,-248.47 -448.69,-298.78 -175.98,-50.53 -205.76,6.81 -376.89,-18.79 -145.32,-21.74 -107.7,-110.24 -366.66,-173.05 -167.15,-40.55 -268.05,80.06 -300.84,241.23 -31.88,156.68 -359.93,165.04 -431.04,252.52 -133.73,164.51 -143.34,615.68 311.19,633.5 148.32,5.82 65.16,277.69 144.03,402.87 150.8,239.37 256.95,252.06 454.76,343.34 281.93,130.08 559.49,-65.51 788.56,-113.46 109.11,-22.84 222.49,-92.72 298.16,-196.55 v 574.07 c -2.85,0.29 -5.63,0.54 -8.52,0.86 -174.11,19.47 -527.93,216.23 -662.98,382.56 -53.72,66.15 -142.87,186.11 -192.46,326.97 H 6062.19 c 62.69,-274.31 -181.1,-573.26 -570.02,-643.18 -133.74,-24.05 -259.4,-93.3 -500.69,-66.35 -174.11,19.47 -527.93,216.23 -662.98,382.56 -53.72,66.15 -142.87,186.11 -192.46,326.97 H 1062.19 C 1124.88,9725.69 881.094,9426.74 492.168,9356.82 360.023,9333.06 235.691,9265.23 0,9289.61 V 8715.54 C 54.1758,8641.21 89.0586,8549.5 89.043,8445.04 89.0078,8295.72 35.1719,8240.83 0,8177.13 v -264.44 c 12.2031,-51.52 12.207,-88.31 0,-127.72 v -598.73 c 51.0273,69.83 124.883,125.7 228.984,155.63 187.071,53.75 164.2,358.66 416.602,303.89 177.09,-38.42 241.953,-163.39 338.144,-292.69 73.42,-98.72 204.04,-183.13 319.4,-227.15 132.1,-50.41 198.82,-164.51 232.69,-315.94 71.25,-318.57 -29.34,-637.09 -286.68,-792.17 -154.39,-93.02 -550.117,-43.63 -735.956,-0.51 C 365.469,6051.57 213.75,6205.61 108.438,6318.01 61.7188,6367.86 27.2344,6401.56 0,6438 v -686.75 c 81.7734,-4.8 153.441,-22.82 205.059,-57.74 138.828,-93.94 218.593,-232.05 370.031,-278.55 792.04,-243.09 541.58,-945.87 -82.922,-1058.14 C 360.023,4333.06 235.691,4265.22 0,4289.61 V 3715.54 C 54.1758,3641.21 89.0586,3549.5 89.043,3445.04 89.0078,3295.72 35.1719,3240.83 0,3177.13 V 2912.7 c 12.2031,-51.54 12.207,-88.33 0,-127.73 v -598.73 c 51.0273,69.82 124.883,125.7 228.984,155.63 187.071,53.75 164.2,358.66 416.602,303.89 177.09,-38.42 241.953,-163.39 338.144,-292.69 73.42,-98.72 204.04,-183.13 319.4,-227.15 132.1,-50.41 198.82,-164.51 232.69,-315.94 71.25,-318.57 -29.34,-637.09 -286.68,-792.17 C 1094.75,924.789 699.023,974.18 513.184,1017.3 365.469,1051.57 213.75,1205.61 108.438,1318.01 61.7188,1367.86 27.2344,1401.56 0,1438 V 751.25 C 81.7734,746.449 153.441,728.43 205.059,693.512 343.887,599.57 423.652,461.461 575.09,414.961 873.863,323.262 1024.22,166.152 1062.19,0 h 3073.85 c -52.29,148.531 -60.62,320.301 62.97,476.813 153.76,194.707 777.02,371.648 1006.05,216.699 C 5343.89,599.57 5423.65,461.461 5575.09,414.961 5873.86,323.262 6024.22,166.152 6062.19,0 h 3073.85 c -52.29,148.531 -60.62,320.301 62.97,476.813"
         style="fill:#fde4da;fill-opacity:1;fill-rule:nonzero;stroke:none"
         id="path16" />
      <path
         d="m 9991.48,9290.47 c 2.89,-0.32 5.67,-0.57 8.52,-0.86 v 411.02 c -10.26,-0.92 -20.63,-1.47 -31.14,-1.47 -175.19,0 -319.63,131.3 -340.53,300.84 h -492.29 c 49.59,-140.86 138.74,-260.82 192.46,-326.97 135.05,-166.33 488.87,-363.09 662.98,-382.56"
         style="fill:#ffffff;fill-opacity:1;fill-rule:nonzero;stroke:none"
         id="path18" />
      <path
         d="m 9740.06,9996.95 c 5.16,2.44 15.24,-8.23 19.38,-12.19 30.49,-29.42 38.35,-60.13 50.01,-98.32 0.34,-4.2 -10.25,-18.67 -18.51,-15.95 -87.15,25.37 -92.98,106.69 -50.88,126.46 z m 228.8,-297.79 c 10.51,0 20.88,0.55 31.14,1.47 V 10000 h -371.67 c 20.9,-169.54 165.34,-300.84 340.53,-300.84"
         style="fill:#fcc917;fill-opacity:1;fill-rule:nonzero;stroke:none"
         id="path20" />
      <path
         d="m 9790.94,9870.49 c 8.26,-2.72 18.85,11.75 18.51,15.95 -11.66,38.19 -19.52,68.9 -50.01,98.32 -4.14,3.96 -14.22,14.63 -19.38,12.19 -42.1,-19.77 -36.27,-101.09 50.88,-126.46"
         style="fill:#ffffff;fill-opacity:1;fill-rule:nonzero;stroke:none"
         id="path22" />
      <path
         d="m 9199.01,5476.81 c -240.81,-304.94 19.12,-667.86 129.49,-803.78 135.05,-166.33 488.87,-363.09 662.98,-382.56 2.89,-0.32 5.67,-0.57 8.52,-0.86 v 411.02 c -10.26,-0.92 -20.63,-1.47 -31.14,-1.47 -189.55,0 -343.23,153.67 -343.23,343.22 0,189.66 153.68,343.4 343.23,343.4 10.51,0 20.88,-0.55 31.14,-1.47 v 366.94 c -281.07,16.51 -681.87,-123.61 -800.99,-274.44"
         style="fill:#ffffff;fill-opacity:1;fill-rule:nonzero;stroke:none"
         id="path24" />
      <path
         d="m 9790.94,4870.49 c -87.15,25.37 -92.98,106.69 -50.88,126.46 5.16,2.43 15.24,-8.23 19.38,-12.19 30.49,-29.42 38.35,-60.13 50.01,-98.32 0.34,-4.2 -10.25,-18.67 -18.51,-15.95 z m -165.31,171.89 c 0,-189.55 153.68,-343.22 343.23,-343.22 10.51,0 20.88,0.55 31.14,1.47 v 683.68 c -10.26,0.92 -20.63,1.47 -31.14,1.47 -189.55,0 -343.23,-153.74 -343.23,-343.4"
         style="fill:#fcc917;fill-opacity:1;fill-rule:nonzero;stroke:none"
         id="path26" />
      <path
         d="m 9740.06,4996.95 c -42.1,-19.77 -36.27,-101.09 50.88,-126.46 8.26,-2.72 18.85,11.75 18.51,15.95 -11.66,38.19 -19.52,68.9 -50.01,98.32 -4.14,3.96 -14.22,14.62 -19.38,12.19"
         style="fill:#ffffff;fill-opacity:1;fill-rule:nonzero;stroke:none"
         id="path28" />
      <path
         d="m 9510,8086.72 c -11.09,-206.8 -187.81,-365.39 -394.67,-354.28 -206.78,11.1 -365.41,187.68 -354.29,394.47 11.09,206.78 187.69,365.4 394.47,354.3 206.87,-11.09 365.58,-187.71 354.49,-394.49 z m 191.84,825.37 c -229.07,47.95 -506.63,243.54 -788.56,113.46 -197.81,-91.28 -303.96,-103.97 -454.76,-343.34 -78.87,-125.18 4.29,-397.05 -144.03,-402.87 -454.53,-17.82 -444.92,-468.99 -311.19,-633.5 71.11,-87.48 399.16,-95.84 431.04,-252.52 32.79,-161.17 133.69,-281.78 300.84,-241.23 258.96,62.81 221.34,151.31 366.66,173.05 171.13,25.6 200.91,-31.74 376.89,18.79 175.27,50.31 354.38,139.39 448.69,298.78 36.32,61.4 60.46,103.13 72.58,142.26 v 127.72 c -2.6,10.99 -5.74,22.64 -9.45,35.14 -35.5,119.6 -19.22,177.37 9.45,229.3 v 538.41 c -75.67,103.83 -189.05,173.71 -298.16,196.55"
         style="fill:#ffffff;fill-opacity:1;fill-rule:nonzero;stroke:none"
         id="path30" />
      <path
         d="m 9141.09,7777.46 c -72.11,-3.74 -61.6,30.66 -89.08,70.1 -100.62,144.41 80.69,48.1 177.5,76.02 24.88,7.2 88.91,27.47 124.55,25.58 4.46,-0.24 23.93,-14.11 23.93,-14.11 -43.87,-91.78 -139.94,-152.57 -236.9,-157.59 z m -182.77,533.52 c 32.77,93.57 121.82,95.17 140.94,48.1 2.34,-5.78 -9.88,-16.15 -14.44,-20.44 -33.88,-31.53 -67.83,-38.31 -110.19,-48.78 -4.59,-0.15 -19.75,12.27 -16.31,21.12 z m 197.19,170.23 c -206.78,11.1 -383.38,-147.52 -394.47,-354.3 -11.12,-206.79 147.51,-383.37 354.29,-394.47 206.86,-11.11 383.58,147.48 394.67,354.28 11.09,206.78 -147.62,383.4 -354.49,394.49"
         style="fill:#fcc917;fill-opacity:1;fill-rule:nonzero;stroke:none"
         id="path32" />
      <path
         d="m 9229.51,7923.58 c -96.81,-27.92 -278.12,68.39 -177.5,-76.02 27.48,-39.44 16.97,-73.84 89.08,-70.1 96.96,5.02 193.03,65.81 236.9,157.59 0,0 -19.47,13.87 -23.93,14.11 -35.64,1.89 -99.67,-18.38 -124.55,-25.58"
         style="fill:#ffffff;fill-opacity:1;fill-rule:nonzero;stroke:none"
         id="path34" />
      <path
         d="m 9099.26,8359.08 c -19.12,47.07 -108.17,45.47 -140.94,-48.1 -3.44,-8.85 11.72,-21.27 16.31,-21.12 42.36,10.47 76.31,17.25 110.19,48.78 4.56,4.29 16.78,14.66 14.44,20.44"
         style="fill:#ffffff;fill-opacity:1;fill-rule:nonzero;stroke:none"
         id="path36" />
      <path
         d="m 8272.77,6002.7 c 87.68,-193.18 2.15,-420.85 -190.99,-508.52 -193.19,-87.69 -420.86,-2.17 -508.56,191.01 -87.69,193.26 -2.22,420.99 190.94,508.67 193.16,87.67 420.88,2.09 508.61,-191.16 z m -607.85,797.78 c -189.24,-13.63 -352.73,-137.17 -478.97,-274.88 -126.72,-138.25 -146.58,-309.76 -248.24,-454.98 -86.34,-123.32 -267.23,-139.87 -323.28,-271.58 -23.51,-55.28 -21.91,-99.63 -5.02,-136.65 16.76,-36.75 48.59,-66.28 85.82,-92.13 v 0 c 85.3,-59.2 199.01,-99.07 225.31,-162.03 191.48,-458.52 648.69,-425.94 895.03,-355.59 30.25,8.64 57.32,17.85 80.33,26.79 185.02,71.89 449,37.71 623.08,177.4 248.15,199.08 467.54,401.36 528.23,633.32 49.61,189.55 -86.68,377.51 -266.49,576.86 -185.97,206.17 -618.61,18.59 -826.7,212.75 -101.03,94.27 -127.11,132.39 -289.1,120.72"
         style="fill:#ffffff;fill-opacity:1;fill-rule:nonzero;stroke:none"
         id="path38" />
      <path
         d="m 7722.25,6011.64 c 15.09,-33.3 19.63,-101.95 22.05,-128.38 9.41,-102.79 168.94,-239.9 -6.41,-197.71 -47.87,11.5 -76.76,-11.35 -100.08,58.86 -31.36,94.38 -9.18,208.71 62.05,284.79 0,0 20.49,-13.4 22.39,-17.56 z m 472.05,-111.72 c 2.38,5.96 7.69,21.47 14.1,21.39 52.05,-0.69 83.73,-86.23 6.66,-152.4 -7.21,-6.59 -24.71,3.24 -26.27,7.69 -5.8,44.32 -11.97,79.24 5.51,123.32 z m -621.08,-214.73 c 87.7,-193.18 315.37,-278.7 508.56,-191.01 193.14,87.67 278.67,315.34 190.99,508.52 -87.73,193.25 -315.45,278.83 -508.61,191.16 -193.16,-87.68 -278.63,-315.41 -190.94,-508.67"
         style="fill:#fcc917;fill-opacity:1;fill-rule:nonzero;stroke:none"
         id="path40" />
      <path
         d="m 7637.81,5744.41 c 23.32,-70.21 52.21,-47.36 100.08,-58.86 175.35,-42.19 15.82,94.92 6.41,197.71 -2.42,26.43 -6.96,95.08 -22.05,128.38 -1.9,4.16 -22.39,17.56 -22.39,17.56 -71.23,-76.08 -93.41,-190.41 -62.05,-284.79"
         style="fill:#ffffff;fill-opacity:1;fill-rule:nonzero;stroke:none"
         id="path42" />
      <path
         d="m 8215.06,5768.91 c 77.07,66.17 45.39,151.71 -6.66,152.4 -6.41,0.08 -11.72,-15.43 -14.1,-21.39 -17.48,-44.08 -11.31,-79 -5.51,-123.32 1.56,-4.45 19.06,-14.28 26.27,-7.69"
         style="fill:#ffffff;fill-opacity:1;fill-rule:nonzero;stroke:none"
         id="path44" />
      <path
         d="m 9939.02,6562.08 c 16.58,-53.93 35.65,-90.19 60.98,-124.08 v 748.24 c -134.24,-183.7 -110.19,-464.15 -60.98,-624.16"
         style="fill:#ffffff;fill-opacity:1;fill-rule:nonzero;stroke:none"
         id="path46" />
      <path
         d="m 7052.29,8678.81 c 1.92,-3.97 21.84,-16.22 21.84,-16.22 66.09,74.57 84.33,184.47 51.89,273.89 -24.14,66.5 -51.17,43.91 -97.24,53.66 -168.7,35.74 -12.62,-91.17 -0.93,-189.2 3,-25.18 9.12,-90.72 24.44,-122.13"
         style="fill:#ffffff;fill-opacity:1;fill-rule:nonzero;stroke:none"
         id="path48" />
      <path
         d="m 9625.63,42.3789 c 0,189.6601 153.68,343.4021 343.23,343.4021 10.51,0 20.88,-0.551 31.14,-1.468 V 751.25 C 9718.93,767.762 9318.13,627.652 9199.01,476.813 9075.42,320.301 9083.75,148.531 9136.04,0 h 492.29 c -1.71,13.9023 -2.7,28.0195 -2.7,42.3789"
         style="fill:#ffffff;fill-opacity:1;fill-rule:nonzero;stroke:none"
         id="path50" />
      <path
         d="m 9625.63,42.3789 c 0,-14.3594 0.99,-28.4766 2.7,-42.3789 H 10000 v 384.313 c -10.26,0.917 -20.63,1.468 -31.14,1.468 -189.55,0 -343.23,-153.742 -343.23,-343.4021"
         style="fill:#fcc917;fill-opacity:1;fill-rule:nonzero;stroke:none"
         id="path52" />
      <path
         d="m 9510,3086.72 c -11.09,-206.8 -187.81,-365.39 -394.67,-354.28 -206.78,11.1 -365.41,187.68 -354.29,394.47 11.09,206.78 187.69,365.4 394.47,354.3 206.87,-11.09 365.58,-187.71 354.49,-394.49 z m 191.84,825.37 c -229.07,47.95 -506.63,243.53 -788.56,113.46 -197.81,-91.28 -303.96,-103.97 -454.76,-343.34 -78.87,-125.18 4.29,-397.05 -144.03,-402.87 -454.53,-17.82 -444.92,-468.99 -311.19,-633.5 71.11,-87.48 399.16,-95.84 431.04,-252.52 32.79,-161.17 133.69,-281.78 300.84,-241.23 258.96,62.81 221.34,151.31 366.66,173.05 171.13,25.6 200.91,-31.74 376.89,18.79 175.27,50.31 354.38,139.39 448.69,298.78 36.32,61.4 60.46,103.13 72.58,142.26 v 127.73 c -2.6,10.98 -5.74,22.63 -9.45,35.13 -35.5,119.6 -19.22,177.38 9.45,229.3 v 538.41 c -75.67,103.83 -189.05,173.71 -298.16,196.55"
         style="fill:#ffffff;fill-opacity:1;fill-rule:nonzero;stroke:none"
         id="path54" />
      <path
         d="m 9141.09,2777.46 c -72.11,-3.74 -61.6,30.66 -89.08,70.1 -100.62,144.41 80.69,48.1 177.5,76.02 24.88,7.2 88.91,27.47 124.55,25.58 4.46,-0.24 23.93,-14.11 23.93,-14.11 -43.87,-91.78 -139.94,-152.57 -236.9,-157.59 z m -182.77,533.52 c 32.77,93.57 121.82,95.17 140.94,48.1 2.34,-5.78 -9.88,-16.15 -14.44,-20.44 -33.88,-31.53 -67.83,-38.31 -110.19,-48.78 -4.59,-0.15 -19.75,12.27 -16.31,21.12 z m 197.19,170.23 c -206.78,11.1 -383.38,-147.52 -394.47,-354.3 -11.12,-206.79 147.51,-383.37 354.29,-394.47 206.86,-11.11 383.58,147.48 394.67,354.28 11.09,206.78 -147.62,383.4 -354.49,394.49"
         style="fill:#fcc917;fill-opacity:1;fill-rule:nonzero;stroke:none"
         id="path56" />
      <path
         d="m 9229.51,2923.58 c -96.81,-27.92 -278.12,68.39 -177.5,-76.02 27.48,-39.44 16.97,-73.84 89.08,-70.1 96.96,5.02 193.03,65.81 236.9,157.59 0,0 -19.47,13.87 -23.93,14.11 -35.64,1.89 -99.67,-18.38 -124.55,-25.58"
         style="fill:#ffffff;fill-opacity:1;fill-rule:nonzero;stroke:none"
         id="path58" />
      <path
         d="m 9099.26,3359.08 c -19.12,47.07 -108.17,45.47 -140.94,-48.1 -3.44,-8.85 11.72,-21.27 16.31,-21.12 42.36,10.47 76.31,17.25 110.19,48.78 4.56,4.29 16.78,14.66 14.44,20.44"
         style="fill:#ffffff;fill-opacity:1;fill-rule:nonzero;stroke:none"
         id="path60" />
      <path
         d="m 8081.78,494.18 c -193.19,-87.688 -420.86,-2.168 -508.56,191.011 -87.69,193.258 -2.22,420.989 190.94,508.669 193.16,87.67 420.88,2.09 508.61,-191.16 87.68,-193.18 2.15,-420.848 -190.99,-508.52 z m -127.76,1185.58 c -101.03,94.27 -127.11,132.39 -289.1,120.72 -189.24,-13.63 -352.73,-137.17 -478.97,-274.88 -126.72,-138.25 -146.58,-309.76 -248.24,-454.98 -86.34,-123.319 -267.23,-139.87 -323.28,-271.581 -23.51,-55.277 -21.91,-99.629 -5.02,-136.648 16.76,-36.75 48.59,-66.282 85.82,-92.129 v 0 c 85.3,-59.211 199.01,-99.071 225.31,-162.032 191.48,-458.5308 648.69,-425.9292 895.03,-355.5777 30.25,8.629 57.32,17.8477 80.33,26.7774 185.02,71.8903 449,37.7113 623.08,177.4023 248.15,199.078 467.54,401.359 528.23,633.32 49.61,189.548 -86.68,377.508 -266.49,576.858 -185.97,206.17 -618.61,18.59 -826.7,212.75"
         style="fill:#ffffff;fill-opacity:1;fill-rule:nonzero;stroke:none"
         id="path62" />
      <path
         d="m 8215.06,768.91 c -7.21,-6.59 -24.71,3.242 -26.27,7.692 -5.8,44.32 -11.97,79.238 5.51,123.32 2.38,5.957 7.69,21.469 14.1,21.387 52.05,-0.688 83.73,-86.227 6.66,-152.399 z m -477.17,-83.359 c -47.87,11.5 -76.76,-11.352 -100.08,58.859 -31.36,94.379 -9.18,208.711 62.05,284.79 0,0 20.49,-13.4 22.39,-17.56 15.09,-33.3 19.63,-101.949 22.05,-128.378 9.41,-102.793 168.94,-239.903 -6.41,-197.711 z m 26.27,508.309 C 7571,1106.18 7485.53,878.449 7573.22,685.191 c 87.7,-193.179 315.37,-278.699 508.56,-191.011 193.14,87.672 278.67,315.34 190.99,508.52 -87.73,193.25 -315.45,278.83 -508.61,191.16"
         style="fill:#fcc917;fill-opacity:1;fill-rule:nonzero;stroke:none"
         id="path64" />
      <path
         d="m 7722.25,1011.64 c -1.9,4.16 -22.39,17.56 -22.39,17.56 -71.23,-76.079 -93.41,-190.411 -62.05,-284.79 23.32,-70.211 52.21,-47.359 100.08,-58.859 175.35,-42.192 15.82,94.918 6.41,197.711 -2.42,26.429 -6.96,95.078 -22.05,128.378"
         style="fill:#ffffff;fill-opacity:1;fill-rule:nonzero;stroke:none"
         id="path66" />
      <path
         d="m 8208.4,921.309 c -6.41,0.082 -11.72,-15.43 -14.1,-21.387 -17.48,-44.082 -11.31,-79 -5.51,-123.32 1.56,-4.45 19.06,-14.282 26.27,-7.692 77.07,66.172 45.39,151.711 -6.66,152.399"
         style="fill:#ffffff;fill-opacity:1;fill-rule:nonzero;stroke:none"
         id="path68" />
      <path
         d="m 9939.02,1562.08 c 16.58,-53.93 35.65,-90.19 60.98,-124.08 v 748.24 c -134.24,-183.69 -110.19,-464.15 -60.98,-624.16"
         style="fill:#ffffff;fill-opacity:1;fill-rule:nonzero;stroke:none"
         id="path70" />
      <path
         d="m 7052.29,3678.81 c 1.92,-3.97 21.84,-16.22 21.84,-16.22 66.09,74.57 84.33,184.47 51.89,273.89 -24.14,66.5 -51.17,43.91 -97.24,53.66 -168.7,35.74 -12.62,-91.17 -0.93,-189.2 3,-25.18 9.12,-90.72 24.44,-122.13"
         style="fill:#ffffff;fill-opacity:1;fill-rule:nonzero;stroke:none"
         id="path72" />
      <path
         d="m 4991.48,9290.47 c 241.29,-26.95 366.95,42.3 500.69,66.35 388.92,69.92 632.71,368.87 570.02,643.18 h -752.81 c -20.88,-169.54 -165.29,-300.84 -340.52,-300.84 -175.19,0 -319.63,131.3 -340.53,300.84 h -492.29 c 49.59,-140.86 138.74,-260.82 192.46,-326.97 135.05,-166.33 488.87,-363.09 662.98,-382.56"
         style="fill:#ffffff;fill-opacity:1;fill-rule:nonzero;stroke:none"
         id="path74" />
      <path
         d="m 4740.06,9996.95 c 5.16,2.44 15.24,-8.23 19.38,-12.19 30.49,-29.42 38.35,-60.13 50.01,-98.32 0.34,-4.2 -10.25,-18.67 -18.51,-15.95 -87.15,25.37 -92.98,106.69 -50.88,126.46 z m 228.8,-297.79 c 175.23,0 319.64,131.3 340.52,300.84 h -63.93 c -10.24,-5.92 -22.67,-11.14 -35.48,-21.13 -69.26,-53.99 -77.25,-27.87 -75.1,21.13 h -506.54 c 20.9,-169.54 165.34,-300.84 340.53,-300.84"
         style="fill:#fcc917;fill-opacity:1;fill-rule:nonzero;stroke:none"
         id="path76" />
      <path
         d="m 5209.97,9978.87 c 12.81,9.99 25.24,15.21 35.48,21.13 h -110.58 c -2.15,-49 5.84,-75.12 75.1,-21.13"
         style="fill:#ffffff;fill-opacity:1;fill-rule:nonzero;stroke:none"
         id="path78" />
      <path
         d="m 4790.94,9870.49 c 8.26,-2.72 18.85,11.75 18.51,15.95 -11.66,38.19 -19.52,68.9 -50.01,98.32 -4.14,3.96 -14.22,14.63 -19.38,12.19 -42.1,-19.77 -36.27,-101.09 50.88,-126.46"
         style="fill:#ffffff;fill-opacity:1;fill-rule:nonzero;stroke:none"
         id="path80" />
      <path
         d="m 6517.78,9014.97 c 3.21,4.97 6.52,9.87 9.96,14.69 6.88,9.64 14.25,18.98 22.09,27.97 31.36,35.96 70.3,66.37 115.89,88.58 182.38,88.88 402.24,13.08 491.1,-169.31 88.92,-182.48 13.17,-402.4 -169.22,-491.29 -45.59,-22.22 -93.53,-34.14 -141.18,-36.66 -51.88,-2.76 -103.38,5.69 -151.19,24.02 v 0 c -83.91,32.17 -156.33,94.94 -198.82,182.13 -58.32,119.68 -45.72,255.52 21.37,359.87 z m -699.71,-904.46 c 69.89,-120.87 558.81,12.67 762.79,-167.52 25.49,-22.51 66.02,-42.92 114.37,-59.6 v 0 c 133.69,-46.12 327.7,-63.6 433.1,-16.94 4.63,2.05 9.08,4.22 13.36,6.52 274.67,147.79 301.42,537.38 394.82,678.9 79.3,120.1 319.32,-76.09 424.32,233.78 101.44,299.31 -225.84,829.72 -611.69,848.65 -182.56,8.97 -246.7,-15.86 -388.46,-103.27 -123.8,-76.34 -296.29,-138.04 -441.18,-135.97 -189.83,2.69 -353.13,31.54 -515.93,-106.55 -231.99,-196.79 37.72,-383.92 -14.23,-607.22 -42.45,-182.5 -360.88,-242.83 -171.27,-570.78"
         style="fill:#ffffff;fill-opacity:1;fill-rule:nonzero;stroke:none"
         id="path82" />
      <path
         d="m 6585.34,8899.81 c 6.74,-1.4 13.76,-5.88 14.78,-8.52 5.04,-31.66 10.11,-58.26 5.8,-87.55 -1.45,-9.77 -3.93,-19.83 -7.81,-30.48 -2.14,-5.78 -6.82,-20.72 -12.96,-20.82 -3.11,-0.04 -6.16,0.23 -9.11,0.8 -2.95,0.57 -5.82,1.43 -8.57,2.57 -38.55,15.9 -55.59,85.03 7.37,142.15 2.5,2.44 6.45,2.7 10.5,1.85 z m 443.44,90.33 c 46.07,-9.75 73.1,12.84 97.24,-53.66 32.44,-89.42 14.2,-199.32 -51.89,-273.89 0,0 -19.92,12.25 -21.84,16.22 -15.32,31.41 -21.44,96.95 -24.44,122.13 -11.69,98.03 -167.77,224.94 0.93,189.2 z m -333.55,-517.17 v 0 c 47.81,-18.33 99.31,-26.78 151.19,-24.02 47.65,2.52 95.59,14.44 141.18,36.66 182.39,88.89 258.14,308.81 169.22,491.29 -88.86,182.39 -308.72,258.19 -491.1,169.31 -45.59,-22.21 -84.53,-52.62 -115.89,-88.58 -7.84,-8.99 -15.21,-18.33 -22.09,-27.97 -3.44,-4.82 -6.75,-9.72 -9.96,-14.69 -67.09,-104.35 -79.69,-240.19 -21.37,-359.87 42.49,-87.19 114.91,-149.96 198.82,-182.13"
         style="fill:#fcc917;fill-opacity:1;fill-rule:nonzero;stroke:none"
         id="path84" />
      <path
         d="m 6567.47,8755.81 c 2.75,-1.14 5.62,-2 8.57,-2.57 2.95,-0.57 6,-0.84 9.11,-0.8 6.14,0.1 10.82,15.04 12.96,20.82 3.88,10.65 6.36,20.71 7.81,30.48 4.31,29.29 -0.76,55.89 -5.8,87.55 -1.02,2.64 -8.04,7.12 -14.78,8.52 -4.05,0.85 -8,0.59 -10.5,-1.85 -62.96,-57.12 -45.92,-126.25 -7.37,-142.15"
         style="fill:#ffffff;fill-opacity:1;fill-rule:nonzero;stroke:none"
         id="path86" />
      <path
         d="m 4740.06,4996.95 c 5.16,2.43 15.24,-8.23 19.38,-12.19 30.49,-29.42 38.35,-60.13 50.01,-98.32 0.34,-4.2 -10.25,-18.67 -18.51,-15.95 -87.15,25.37 -92.98,106.69 -50.88,126.46 z m 373.92,275.6 c 86.04,-35.6 146.34,-120.43 155.68,-208.81 6.96,-65.75 -25,-57.82 -59.69,-84.87 -127.08,-99.08 -47.95,71.4 -78.22,158.53 -7.79,22.39 -29.48,79.92 -29.48,112.59 0,4.09 11.71,22.56 11.71,22.56 z m -145.12,-573.39 c 189.6,0 343.22,153.67 343.22,343.22 0,189.66 -153.62,343.4 -343.22,343.4 -189.55,0 -343.23,-153.74 -343.23,-343.4 0,-189.55 153.68,-343.22 343.23,-343.22"
         style="fill:#fcc917;fill-opacity:1;fill-rule:nonzero;stroke:none"
         id="path88" />
      <path
         d="m 5209.97,4978.87 c 34.69,27.05 66.65,19.12 59.69,84.87 -9.34,88.38 -69.64,173.21 -155.68,208.81 0,0 -11.71,-18.47 -11.71,-22.56 0,-32.67 21.69,-90.2 29.48,-112.59 30.27,-87.13 -48.86,-257.61 78.22,-158.53"
         style="fill:#ffffff;fill-opacity:1;fill-rule:nonzero;stroke:none"
         id="path90" />
      <path
         d="m 4790.94,4870.49 c 8.26,-2.72 18.85,11.75 18.51,15.95 -11.66,38.19 -19.52,68.9 -50.01,98.32 -4.14,3.96 -14.22,14.62 -19.38,12.19 -42.1,-19.77 -36.27,-101.09 50.88,-126.46"
         style="fill:#ffffff;fill-opacity:1;fill-rule:nonzero;stroke:none"
         id="path92" />
      <path
         d="m 4155.51,8481.21 c 206.87,-11.09 365.58,-187.71 354.49,-394.49 -11.09,-206.8 -187.81,-365.39 -394.67,-354.28 -206.78,11.1 -365.41,187.68 -354.29,394.47 11.09,206.78 187.69,365.4 394.47,354.3 z m -242.23,544.34 c -197.81,-91.28 -303.96,-103.97 -454.76,-343.34 -78.87,-125.18 4.29,-397.05 -144.03,-402.87 -454.53,-17.82 -444.92,-468.99 -311.19,-633.5 71.11,-87.48 399.16,-95.84 431.04,-252.52 32.79,-161.17 133.69,-281.78 300.84,-241.23 258.96,62.81 221.34,151.31 366.66,173.05 171.13,25.6 200.91,-31.74 376.89,18.79 175.27,50.31 354.38,139.39 448.69,298.78 80.71,136.43 101.49,175.81 63.13,305.12 -79.05,266.31 98.43,226.17 98.49,497.21 0.04,250.37 -199.98,427.85 -387.2,467.05 -229.07,47.95 -506.63,243.54 -788.56,113.46"
         style="fill:#ffffff;fill-opacity:1;fill-rule:nonzero;stroke:none"
         id="path94" />
      <path
         d="m 3958.32,8310.98 c 32.77,93.57 121.82,95.17 140.94,48.1 2.34,-5.78 -9.88,-16.15 -14.44,-20.44 -33.88,-31.53 -67.83,-38.31 -110.19,-48.78 -4.59,-0.15 -19.75,12.27 -16.31,21.12 z m 271.19,-387.4 c 24.88,7.2 88.91,27.47 124.55,25.58 4.46,-0.24 23.93,-14.11 23.93,-14.11 -43.87,-91.78 -139.94,-152.57 -236.9,-157.59 -72.11,-3.74 -61.6,30.66 -89.08,70.1 -100.62,144.41 80.69,48.1 177.5,76.02 z m -468.47,203.33 c -11.12,-206.79 147.51,-383.37 354.29,-394.47 206.86,-11.11 383.58,147.48 394.67,354.28 11.09,206.78 -147.62,383.4 -354.49,394.49 -206.78,11.1 -383.38,-147.52 -394.47,-354.3"
         style="fill:#fcc917;fill-opacity:1;fill-rule:nonzero;stroke:none"
         id="path96" />
      <path
         d="m 4052.01,7847.56 c 27.48,-39.44 16.97,-73.84 89.08,-70.1 96.96,5.02 193.03,65.81 236.9,157.59 0,0 -19.47,13.87 -23.93,14.11 -35.64,1.89 -99.67,-18.38 -124.55,-25.58 -96.81,-27.92 -278.12,68.39 -177.5,-76.02"
         style="fill:#ffffff;fill-opacity:1;fill-rule:nonzero;stroke:none"
         id="path98" />
      <path
         d="m 3974.63,8289.86 c 42.36,10.47 76.31,17.25 110.19,48.78 4.56,4.29 16.78,14.66 14.44,20.44 -19.12,47.07 -108.17,45.47 -140.94,-48.1 -3.44,-8.85 11.72,-21.27 16.31,-21.12"
         style="fill:#ffffff;fill-opacity:1;fill-rule:nonzero;stroke:none"
         id="path100" />
      <path
         d="m 2764.16,6193.86 c 193.16,87.67 420.88,2.09 508.61,-191.16 87.68,-193.18 2.15,-420.85 -190.99,-508.52 -193.19,-87.69 -420.86,-2.17 -508.56,191.01 -87.69,193.26 -2.22,420.99 190.94,508.67 z m 51.41,-1141.22 c 30.25,8.64 57.32,17.85 80.33,26.79 185.02,71.89 449,37.71 623.08,177.4 248.15,199.08 467.54,401.36 528.23,633.32 49.61,189.55 -86.68,377.51 -266.49,576.86 -185.97,206.17 -618.61,18.59 -826.7,212.75 -101.03,94.27 -127.11,132.39 -289.1,120.72 -23.65,-1.71 -46.91,-5.13 -69.73,-10.08 -154.09,-33.42 -288.82,-136.57 -397.3,-251.94 -4.02,-4.27 -8,-8.56 -11.94,-12.86 -126.72,-138.25 -146.58,-309.76 -248.24,-454.98 -29.68,-42.39 -70.53,-72.17 -113.64,-98.34 -43.73,-26.54 -89.76,-49.4 -128.84,-77.94 v 0 c -34.48,-25.18 -63.56,-54.78 -80.8,-95.3 -46.87,-110.16 6.06,-176.89 80.8,-228.78 v 0.01 c 85.3,-59.21 199.01,-99.07 225.3,-162.04 191.49,-458.52 648.69,-425.94 895.04,-355.59"
         style="fill:#ffffff;fill-opacity:1;fill-rule:nonzero;stroke:none"
         id="path102" />
      <path
         d="m 2699.86,6029.2 c 0,0 20.49,-13.4 22.39,-17.56 15.09,-33.3 19.63,-101.95 22.05,-128.38 9.41,-102.79 168.94,-239.9 -6.41,-197.71 -47.87,11.5 -76.76,-11.35 -100.08,58.86 -31.36,94.38 -9.18,208.71 62.05,284.79 z m 494.44,-129.28 c 2.38,5.96 7.69,21.47 14.1,21.39 52.05,-0.69 83.73,-86.23 6.66,-152.4 -7.21,-6.59 -24.71,3.24 -26.27,7.69 -5.8,44.32 -11.97,79.24 5.51,123.32 z m -112.52,-405.74 c 193.14,87.67 278.67,315.34 190.99,508.52 -87.73,193.25 -315.45,278.83 -508.61,191.16 -193.16,-87.68 -278.63,-315.41 -190.94,-508.67 87.7,-193.18 315.37,-278.7 508.56,-191.01"
         style="fill:#fcc917;fill-opacity:1;fill-rule:nonzero;stroke:none"
         id="path104" />
      <path
         d="m 2737.89,5685.55 c 175.35,-42.19 15.82,94.92 6.41,197.71 -2.42,26.43 -6.96,95.08 -22.05,128.38 -1.9,4.16 -22.39,17.56 -22.39,17.56 -71.23,-76.08 -93.41,-190.41 -62.05,-284.79 23.32,-70.21 52.21,-47.36 100.08,-58.86"
         style="fill:#ffffff;fill-opacity:1;fill-rule:nonzero;stroke:none"
         id="path106" />
      <path
         d="m 3215.06,5768.91 c 77.07,66.17 45.39,151.71 -6.66,152.4 -6.41,0.08 -11.72,-15.43 -14.1,-21.39 -17.48,-44.08 -11.31,-79 -5.51,-123.32 1.56,-4.45 19.06,-14.28 26.27,-7.69"
         style="fill:#ffffff;fill-opacity:1;fill-rule:nonzero;stroke:none"
         id="path108" />
      <path
         d="m 5502.54,6805.67 c 77.01,154.06 264.35,216.46 418.38,139.45 154.04,-77.05 216.46,-264.34 139.43,-418.38 -77.07,-154.14 -264.39,-216.62 -418.47,-139.58 -154.03,77.04 -216.41,264.39 -139.34,418.51 z m -563.52,-243.59 c 34.4,-111.9 79.24,-147.84 169.42,-244.07 105.31,-112.4 257.03,-266.44 404.74,-300.71 185.84,-43.12 581.57,-92.51 735.96,0.51 257.34,155.08 357.93,473.6 286.68,792.17 -33.87,151.43 -100.59,265.53 -232.69,315.94 -115.36,44.02 -245.98,128.43 -319.4,227.15 -96.19,129.3 -161.05,254.27 -338.14,292.69 -252.41,54.77 -229.54,-250.14 -416.61,-303.89 -377.96,-108.65 -357.87,-558.95 -289.96,-779.79"
         style="fill:#ffffff;fill-opacity:1;fill-rule:nonzero;stroke:none"
         id="path110" />
      <path
         d="m 5706.7,6878.2 c 7.81,-1.15 10.55,-17.2 8.55,-20.48 -24.98,-26.29 -43.86,-48.05 -80.58,-59.58 -5,-1.54 -17.48,-6.11 -20.71,-2.01 -26.19,33.17 11.63,96.87 92.74,82.07 z m 98.79,-434.89 c 13.26,26.53 54.26,64.47 69.69,79.48 60.03,58.52 64.98,229.21 127.98,97.05 17.23,-36.07 46.39,-42.62 14.05,-93.22 -43.54,-68.03 -126.98,-112.48 -211.37,-106.43 0,0 -2.03,19.77 -0.35,23.12 z m -163.61,-56.15 c 154.08,-77.04 341.4,-14.56 418.47,139.58 77.03,154.04 14.61,341.33 -139.43,418.38 -154.03,77.01 -341.37,14.61 -418.38,-139.45 -77.07,-154.12 -14.69,-341.47 139.34,-418.51"
         style="fill:#fcc917;fill-opacity:1;fill-rule:nonzero;stroke:none"
         id="path112" />
      <path
         d="m 6017.21,6526.62 c 32.34,50.6 3.18,57.15 -14.05,93.22 -63,132.16 -67.95,-38.53 -127.98,-97.05 -15.43,-15.01 -56.43,-52.95 -69.69,-79.48 -1.68,-3.35 0.35,-23.12 0.35,-23.12 84.39,-6.05 167.83,38.4 211.37,106.43"
         style="fill:#ffffff;fill-opacity:1;fill-rule:nonzero;stroke:none"
         id="path114" />
      <path
         d="m 5634.67,6798.14 c 36.72,11.53 55.6,33.29 80.58,59.58 2,3.28 -0.74,19.33 -8.55,20.48 -81.11,14.8 -118.93,-48.9 -92.74,-82.07 3.23,-4.1 15.71,0.47 20.71,2.01"
         style="fill:#ffffff;fill-opacity:1;fill-rule:nonzero;stroke:none"
         id="path116" />
      <path
         d="m 2052.29,8678.81 c 1.91,-3.97 21.84,-16.22 21.84,-16.22 66.1,74.57 84.32,184.47 51.89,273.89 -24.15,66.5 -51.17,43.91 -97.24,53.66 -168.7,35.74 -12.62,-91.17 -0.93,-189.2 3,-25.18 9.12,-90.72 24.44,-122.13"
         style="fill:#ffffff;fill-opacity:1;fill-rule:nonzero;stroke:none"
         id="path118" />
      <path
         d="m 6496.41,3655.1 c -58.32,119.69 -45.72,255.52 21.37,359.87 3.21,4.97 6.52,9.86 9.96,14.69 6.88,9.65 14.25,18.98 22.09,27.97 31.36,35.96 70.3,66.36 115.89,88.58 182.38,88.88 402.24,13.08 491.1,-169.31 88.92,-182.48 13.17,-402.4 -169.22,-491.29 -45.59,-22.21 -93.53,-34.14 -141.18,-36.66 -51.88,-2.76 -103.38,5.69 -151.19,24.02 v 0 c -83.91,32.17 -156.33,94.94 -198.82,182.13 z m 198.82,-771.71 c 133.69,-46.12 327.7,-63.6 433.1,-16.94 4.63,2.05 9.08,4.21 13.36,6.52 274.67,147.79 301.42,537.38 394.82,678.9 79.3,120.1 319.32,-76.09 424.32,233.78 101.44,299.31 -225.84,829.72 -611.69,848.65 -182.56,8.97 -246.7,-15.86 -388.46,-103.27 -123.8,-76.34 -296.29,-138.04 -441.18,-135.97 -189.83,2.68 -353.13,31.54 -515.93,-106.55 -231.99,-196.79 37.72,-383.92 -14.23,-607.22 -42.45,-182.5 -360.88,-242.83 -171.27,-570.78 69.89,-120.87 558.81,12.67 762.79,-167.52 25.49,-22.51 66.02,-42.92 114.37,-59.6 v 0"
         style="fill:#ffffff;fill-opacity:1;fill-rule:nonzero;stroke:none"
         id="path120" />
      <path
         d="m 6585.34,3899.81 c 6.74,-1.4 13.76,-5.88 14.78,-8.52 5.04,-31.66 10.11,-58.26 5.8,-87.56 -1.45,-9.76 -3.93,-19.82 -7.81,-30.47 -2.14,-5.78 -6.82,-20.72 -12.96,-20.82 -3.11,-0.05 -6.16,0.23 -9.11,0.8 -2.95,0.57 -5.82,1.43 -8.57,2.57 -38.55,15.91 -55.59,85.03 7.37,142.15 2.5,2.43 6.45,2.69 10.5,1.85 z m 443.44,90.33 c 46.07,-9.75 73.1,12.84 97.24,-53.66 32.44,-89.42 14.2,-199.32 -51.89,-273.89 0,0 -19.92,12.25 -21.84,16.22 -15.32,31.41 -21.44,96.95 -24.44,122.13 -11.69,98.03 -167.77,224.94 0.93,189.2 z m -333.55,-517.17 c 47.81,-18.33 99.31,-26.78 151.19,-24.02 47.65,2.52 95.59,14.45 141.18,36.66 182.39,88.89 258.14,308.81 169.22,491.29 -88.86,182.39 -308.72,258.19 -491.1,169.31 -45.59,-22.22 -84.53,-52.62 -115.89,-88.58 -7.84,-8.99 -15.21,-18.32 -22.09,-27.97 -3.44,-4.83 -6.75,-9.72 -9.96,-14.69 -67.09,-104.35 -79.69,-240.18 -21.37,-359.87 42.49,-87.19 114.91,-149.96 198.82,-182.13 v 0"
         style="fill:#fcc917;fill-opacity:1;fill-rule:nonzero;stroke:none"
         id="path122" />
      <path
         d="m 6567.47,3755.81 c 2.75,-1.14 5.62,-2 8.57,-2.57 2.95,-0.57 6,-0.85 9.11,-0.8 6.14,0.1 10.82,15.04 12.96,20.82 3.88,10.65 6.36,20.71 7.81,30.47 4.31,29.3 -0.76,55.9 -5.8,87.56 -1.02,2.64 -8.04,7.12 -14.78,8.52 -4.05,0.84 -8,0.58 -10.5,-1.85 -62.96,-57.12 -45.92,-126.24 -7.37,-142.15"
         style="fill:#ffffff;fill-opacity:1;fill-rule:nonzero;stroke:none"
         id="path124" />
      <path
         d="m 5575.09,414.961 c -151.44,46.5 -231.2,184.609 -370.03,278.551 C 4976.03,848.461 4352.77,671.52 4199.01,476.813 4075.42,320.301 4083.75,148.531 4136.04,0 h 492.29 c -1.71,13.9023 -2.7,28.0195 -2.7,42.3789 0,189.6601 153.68,343.4021 343.23,343.4021 189.6,0 343.22,-153.742 343.22,-343.4021 0,-14.3594 -0.99,-28.4766 -2.7,-42.3789 h 752.81 c -37.97,166.152 -188.33,323.262 -487.1,414.961"
         style="fill:#ffffff;fill-opacity:1;fill-rule:nonzero;stroke:none"
         id="path126" />
      <path
         d="m 4968.86,385.781 c -189.55,0 -343.23,-153.742 -343.23,-343.4021 0,-14.3594 0.99,-28.4766 2.7,-42.3789 h 506.54 c 1.8,40.9102 10.66,97.75 -3.12,137.402 -7.79,22.387 -29.48,79.918 -29.48,112.59 0,4.09 11.71,22.559 11.71,22.559 86.04,-35.602 146.34,-120.43 155.68,-208.8088 C 5274.05,22.2695 5262.94,10.1211 5245.45,0 h 63.93 c 1.71,13.9023 2.7,28.0195 2.7,42.3789 0,189.6601 -153.62,343.4021 -343.22,343.4021"
         style="fill:#fcc917;fill-opacity:1;fill-rule:nonzero;stroke:none"
         id="path128" />
      <path
         d="m 5269.66,63.7422 c -9.34,88.3788 -69.64,173.2068 -155.68,208.8088 0,0 -11.71,-18.469 -11.71,-22.559 0,-32.672 21.69,-90.203 29.48,-112.59 13.78,-39.652 4.92,-96.4918 3.12,-137.402 h 110.58 c 17.49,10.1211 28.6,22.2695 24.21,63.7422"
         style="fill:#ffffff;fill-opacity:1;fill-rule:nonzero;stroke:none"
         id="path130" />
      <path
         d="m 4510,3086.72 c -11.09,-206.8 -187.81,-365.39 -394.67,-354.28 -206.78,11.1 -365.41,187.68 -354.29,394.47 11.09,206.78 187.69,365.4 394.47,354.3 206.87,-11.09 365.58,-187.71 354.49,-394.49 z m 480.55,-138.89 c -79.05,266.31 98.43,226.17 98.49,497.21 0.04,250.37 -199.98,427.85 -387.2,467.05 -229.07,47.95 -506.63,243.53 -788.56,113.46 -197.81,-91.28 -303.96,-103.97 -454.76,-343.34 -78.87,-125.18 4.29,-397.05 -144.03,-402.87 -454.53,-17.82 -444.92,-468.99 -311.19,-633.5 71.11,-87.48 399.16,-95.84 431.04,-252.52 32.79,-161.17 133.69,-281.78 300.84,-241.23 258.96,62.81 221.34,151.31 366.66,173.05 171.13,25.6 200.91,-31.74 376.89,18.79 175.27,50.31 354.38,139.39 448.69,298.78 80.71,136.43 101.49,175.81 63.13,305.12"
         style="fill:#ffffff;fill-opacity:1;fill-rule:nonzero;stroke:none"
         id="path132" />
      <path
         d="m 4141.09,2777.46 c -72.11,-3.74 -61.6,30.66 -89.08,70.1 -100.62,144.41 80.69,48.1 177.5,76.02 24.88,7.2 88.91,27.47 124.55,25.58 4.46,-0.24 23.93,-14.11 23.93,-14.11 -43.87,-91.78 -139.94,-152.57 -236.9,-157.59 z m -182.77,533.52 c 32.77,93.57 121.82,95.17 140.94,48.1 2.34,-5.78 -9.88,-16.15 -14.44,-20.44 -33.88,-31.53 -67.83,-38.31 -110.19,-48.78 -4.59,-0.15 -19.75,12.27 -16.31,21.12 z m 197.19,170.23 c -206.78,11.1 -383.38,-147.52 -394.47,-354.3 -11.12,-206.79 147.51,-383.37 354.29,-394.47 206.86,-11.11 383.58,147.48 394.67,354.28 11.09,206.78 -147.62,383.4 -354.49,394.49"
         style="fill:#fcc917;fill-opacity:1;fill-rule:nonzero;stroke:none"
         id="path134" />
      <path
         d="m 4229.51,2923.58 c -96.81,-27.92 -278.12,68.39 -177.5,-76.02 27.48,-39.44 16.97,-73.84 89.08,-70.1 96.96,5.02 193.03,65.81 236.9,157.59 0,0 -19.47,13.87 -23.93,14.11 -35.64,1.89 -99.67,-18.38 -124.55,-25.58"
         style="fill:#ffffff;fill-opacity:1;fill-rule:nonzero;stroke:none"
         id="path136" />
      <path
         d="m 4099.26,3359.08 c -19.12,47.07 -108.17,45.47 -140.94,-48.1 -3.44,-8.85 11.72,-21.27 16.31,-21.12 42.36,10.47 76.31,17.25 110.19,48.78 4.56,4.29 16.78,14.66 14.44,20.44"
         style="fill:#ffffff;fill-opacity:1;fill-rule:nonzero;stroke:none"
         id="path138" />
      <path
         d="m 3081.78,494.18 c -193.19,-87.688 -420.86,-2.168 -508.56,191.011 -87.69,193.258 -2.22,420.989 190.94,508.669 193.16,87.67 420.88,2.09 508.61,-191.16 87.68,-193.18 2.15,-420.848 -190.99,-508.52 z m -127.76,1185.58 c -101.03,94.27 -127.11,132.39 -289.1,120.72 -23.65,-1.71 -46.91,-5.13 -69.73,-10.08 -154.09,-33.42 -288.82,-136.57 -397.3,-251.94 -4.02,-4.27 -8,-8.56 -11.94,-12.86 -126.72,-138.25 -146.58,-309.76 -248.24,-454.98 -29.68,-42.4 -70.53,-72.159 -113.64,-98.331 -43.73,-26.547 -89.76,-49.41 -128.84,-77.937 v 0 c -34.48,-25.192 -63.56,-54.793 -80.8,-95.313 -46.87,-110.148 6.06,-176.887 80.8,-228.777 v 0 c 85.3,-59.199 199.01,-99.071 225.3,-162.032 191.49,-458.5308 648.69,-425.9292 895.04,-355.5777 30.25,8.629 57.32,17.8477 80.33,26.7774 185.02,71.8903 449,37.7113 623.08,177.4023 248.15,199.078 467.54,401.359 528.23,633.32 49.61,189.548 -86.68,377.508 -266.49,576.858 -185.97,206.17 -618.61,18.59 -826.7,212.75"
         style="fill:#ffffff;fill-opacity:1;fill-rule:nonzero;stroke:none"
         id="path140" />
      <path
         d="m 3215.06,768.91 c -7.21,-6.59 -24.71,3.242 -26.27,7.692 -5.8,44.32 -11.97,79.238 5.51,123.32 2.38,5.957 7.69,21.469 14.1,21.387 52.05,-0.688 83.73,-86.227 6.66,-152.399 z m -477.17,-83.359 c -47.87,11.5 -76.76,-11.352 -100.08,58.859 -31.36,94.379 -9.18,208.711 62.05,284.79 0,0 20.49,-13.4 22.39,-17.56 15.09,-33.3 19.63,-101.949 22.05,-128.378 9.41,-102.793 168.94,-239.903 -6.41,-197.711 z m 26.27,508.309 C 2571,1106.18 2485.53,878.449 2573.22,685.191 c 87.7,-193.179 315.37,-278.699 508.56,-191.011 193.14,87.672 278.67,315.34 190.99,508.52 -87.73,193.25 -315.45,278.83 -508.61,191.16"
         style="fill:#fcc917;fill-opacity:1;fill-rule:nonzero;stroke:none"
         id="path142" />
      <path
         d="m 2722.25,1011.64 c -1.9,4.16 -22.39,17.56 -22.39,17.56 -71.23,-76.079 -93.41,-190.411 -62.05,-284.79 23.32,-70.211 52.21,-47.359 100.08,-58.859 175.35,-42.192 15.82,94.918 6.41,197.711 -2.42,26.429 -6.96,95.078 -22.05,128.378"
         style="fill:#ffffff;fill-opacity:1;fill-rule:nonzero;stroke:none"
         id="path144" />
      <path
         d="m 3208.4,921.309 c -6.41,0.082 -11.72,-15.43 -14.1,-21.387 -17.48,-44.082 -11.31,-79 -5.51,-123.32 1.56,-4.45 19.06,-14.282 26.27,-7.692 77.07,66.172 45.39,151.711 -6.66,152.399"
         style="fill:#ffffff;fill-opacity:1;fill-rule:nonzero;stroke:none"
         id="path146" />
      <path
         d="m 6060.35,1526.74 c -77.07,-154.14 -264.39,-216.62 -418.47,-139.58 -154.03,77.04 -216.41,264.39 -139.34,418.51 77.01,154.06 264.35,216.46 418.38,139.45 154.04,-77.05 216.46,-264.34 139.43,-418.38 z m 242.78,599.18 c -115.36,44.02 -245.98,128.43 -319.4,227.15 -96.19,129.3 -161.05,254.27 -338.14,292.69 -252.41,54.77 -229.54,-250.14 -416.61,-303.89 -377.96,-108.65 -357.87,-558.95 -289.96,-779.79 34.4,-111.9 79.24,-147.84 169.42,-244.07 105.31,-112.4 257.03,-266.44 404.74,-300.71 185.84,-43.12 581.57,-92.511 735.96,0.51 257.34,155.08 357.93,473.6 286.68,792.17 -33.87,151.43 -100.59,265.53 -232.69,315.94"
         style="fill:#ffffff;fill-opacity:1;fill-rule:nonzero;stroke:none"
         id="path148" />
      <path
         d="m 6017.21,1526.62 c -43.54,-68.03 -126.98,-112.48 -211.37,-106.43 0,0 -2.03,19.77 -0.35,23.12 13.26,26.53 54.26,64.47 69.69,79.48 60.03,58.52 64.98,229.21 127.98,97.05 17.23,-36.07 46.39,-42.62 14.05,-93.22 z m -301.96,331.1 c -24.98,-26.29 -43.86,-48.05 -80.58,-59.58 -5,-1.54 -17.48,-6.11 -20.71,-2.01 -26.19,33.17 11.63,96.87 92.74,82.07 7.81,-1.15 10.55,-17.2 8.55,-20.48 z m 205.67,87.4 c -154.03,77.01 -341.37,14.61 -418.38,-139.45 -77.07,-154.12 -14.69,-341.47 139.34,-418.51 154.08,-77.04 341.4,-14.56 418.47,139.58 77.03,154.04 14.61,341.33 -139.43,418.38"
         style="fill:#fcc917;fill-opacity:1;fill-rule:nonzero;stroke:none"
         id="path150" />
      <path
         d="m 5875.18,1522.79 c -15.43,-15.01 -56.43,-52.95 -69.69,-79.48 -1.68,-3.35 0.35,-23.12 0.35,-23.12 84.39,-6.05 167.83,38.4 211.37,106.43 32.34,50.6 3.18,57.15 -14.05,93.22 -63,132.16 -67.95,-38.53 -127.98,-97.05"
         style="fill:#ffffff;fill-opacity:1;fill-rule:nonzero;stroke:none"
         id="path152" />
      <path
         d="m 5706.7,1878.2 c -81.11,14.8 -118.93,-48.9 -92.74,-82.07 3.23,-4.1 15.71,0.47 20.71,2.01 36.72,11.53 55.6,33.29 80.58,59.58 2,3.28 -0.74,19.33 -8.55,20.48"
         style="fill:#ffffff;fill-opacity:1;fill-rule:nonzero;stroke:none"
         id="path154" />
      <path
         d="m 2052.29,3678.81 c 1.91,-3.97 21.84,-16.22 21.84,-16.22 66.1,74.57 84.32,184.47 51.89,273.89 -24.15,66.5 -51.17,43.91 -97.24,53.66 -168.7,35.74 -12.62,-91.17 -0.93,-189.2 3,-25.18 9.12,-90.72 24.44,-122.13"
         style="fill:#ffffff;fill-opacity:1;fill-rule:nonzero;stroke:none"
         id="path156" />
      <path
         d="m 4968.86,5385.78 c 189.6,0 343.22,-153.74 343.22,-343.4 0,-189.55 -153.62,-343.22 -343.22,-343.22 -189.55,0 -343.23,153.67 -343.23,343.22 0,189.66 153.68,343.4 343.23,343.4 z m 523.31,-1028.96 c 624.5,112.27 874.96,815.05 82.92,1058.14 -151.44,46.5 -231.2,184.61 -370.03,278.55 -229.03,154.95 -852.29,-21.99 -1006.05,-216.7 -240.81,-304.94 19.12,-667.86 129.49,-803.78 135.05,-166.33 488.87,-363.09 662.98,-382.56 241.29,-26.95 366.95,42.3 500.69,66.35"
         style="fill:#ffffff;fill-opacity:1;fill-rule:nonzero;stroke:none"
         id="path158" />
      <path
         d="m 309.379,10000 h -63.93 c -10.246,-5.92 -22.672,-11.14 -35.476,-21.13 C 140.715,9924.88 132.73,9951 134.879,10000 H 0 v -299.37 c 160.953,14.48 289.746,140 309.379,299.37"
         style="fill:#fcc917;fill-opacity:1;fill-rule:nonzero;stroke:none"
         id="path160" />
      <path
         d="m 209.973,9978.87 c 12.804,9.99 25.23,15.21 35.476,21.13 h -110.57 c -2.149,-49 5.836,-75.12 75.094,-21.13"
         style="fill:#ffffff;fill-opacity:1;fill-rule:nonzero;stroke:none"
         id="path162" />
      <path
         d="m 1496.41,8655.1 c -83.31,170.97 -21.89,374.9 136.38,472.96 10.55,6.53 21.54,12.6 32.93,18.15 182.38,88.88 402.24,13.08 491.1,-169.31 2.77,-5.7 5.39,-11.44 7.85,-17.21 76.23,-178.88 -0.38,-387.97 -177.07,-474.08 -95.23,-46.4 -200.66,-47.8 -292.37,-12.64 v 0 c -83.91,32.17 -156.33,94.94 -198.82,182.13 z m 198.82,-771.71 v 0 c 116.07,-40.04 277.6,-58.51 387.15,-32.13 22.17,5.34 42.21,12.51 59.31,21.71 274.67,147.79 301.42,537.38 394.82,678.9 79.3,120.1 319.32,-76.09 424.32,233.78 101.44,299.31 -225.84,829.72 -611.69,848.65 -17.11,0.84 -33.19,1.38 -48.38,1.61 -146.88,2.16 -211.6,-25.66 -340.08,-104.88 -15.47,-9.55 -31.71,-18.86 -48.56,-27.85 -65.9,-35.16 -141.17,-65.28 -216.89,-84.76 v 0 c -59.76,-15.38 -119.8,-24.16 -175.73,-23.36 -189.83,2.69 -353.13,31.54 -515.93,-106.55 -3.621,-3.08 -7.125,-6.15 -10.504,-9.22 -179.3,-162.73 -23.371,-319.32 0.204,-495.8 0.445,-3.33 0.839,-6.67 1.195,-10.01 2.078,-20.07 2.355,-40.4 0.14,-61.02 -1.105,-10.32 -2.832,-20.7 -5.269,-31.17 -3.981,-17.11 -10.387,-33.15 -18.57,-48.43 -2.731,-5.09 -5.653,-10.11 -8.754,-15.04 -1.547,-2.47 -3.141,-4.92 -4.778,-7.36 -89.851,-133.93 -302.113,-218.12 -139.168,-499.95 41.5,-71.77 230.714,-53.84 420.314,-65.15 129.72,-7.74 259.61,-29.17 342.48,-102.37 25.49,-22.51 66.01,-42.92 114.37,-59.6"
         style="fill:#ffffff;fill-opacity:1;fill-rule:nonzero;stroke:none"
         id="path164" />
      <path
         d="m 1600.12,8891.29 c 6.72,-42.21 13.51,-75.44 -2.01,-118.03 -2.14,-5.78 -6.82,-20.72 -12.96,-20.82 -49.74,-0.72 -82.26,80.25 -10.31,145.52 6.66,6.49 23.65,-2.45 25.28,-6.67 z m 428.66,98.85 c 46.07,-9.75 73.09,12.84 97.24,-53.66 32.43,-89.42 14.21,-199.32 -51.89,-273.89 0,0 -19.93,12.25 -21.84,16.22 -15.32,31.41 -21.44,96.95 -24.44,122.13 -11.69,98.03 -167.77,224.94 0.93,189.2 z m -333.55,-517.17 c 91.71,-35.16 197.14,-33.76 292.37,12.64 176.69,86.11 253.3,295.2 177.07,474.08 -2.46,5.77 -5.08,11.51 -7.85,17.21 -88.86,182.39 -308.72,258.19 -491.1,169.31 -11.39,-5.55 -22.38,-11.62 -32.93,-18.15 -158.27,-98.06 -219.69,-301.99 -136.38,-472.96 42.49,-87.19 114.91,-149.96 198.82,-182.13 v 0"
         style="fill:#fcc917;fill-opacity:1;fill-rule:nonzero;stroke:none"
         id="path166" />
      <path
         d="m 1574.84,8897.96 c -71.95,-65.27 -39.43,-146.24 10.31,-145.52 6.14,0.1 10.82,15.04 12.96,20.82 15.52,42.59 8.73,75.82 2.01,118.03 -1.63,4.22 -18.62,13.16 -25.28,6.67"
         style="fill:#ffffff;fill-opacity:1;fill-rule:nonzero;stroke:none"
         id="path168" />
      <path
         d="m 131.746,5137.4 c -7.793,22.39 -29.48,79.92 -29.48,112.59 0,4.09 11.718,22.56 11.718,22.56 86.036,-35.6 146.336,-120.43 155.672,-208.81 6.965,-65.75 -25,-57.82 -59.683,-84.87 -127.0824,-99.08 -47.953,71.4 -78.227,158.53 z m 180.332,-95.02 c 0,179.15 -137.094,326.18 -312.078,341.93 v -683.68 c 174.984,15.75 312.078,162.7 312.078,341.75"
         style="fill:#fcc917;fill-opacity:1;fill-rule:nonzero;stroke:none"
         id="path170" />
      <path
         d="m 269.656,5063.74 c -9.336,88.38 -69.636,173.21 -155.672,208.81 0,0 -11.718,-18.47 -11.718,-22.56 0,-32.67 21.687,-90.2 29.48,-112.59 30.274,-87.13 -48.8554,-257.61 78.227,-158.53 34.683,27.05 66.648,19.12 59.683,84.87"
         style="fill:#ffffff;fill-opacity:1;fill-rule:nonzero;stroke:none"
         id="path172" />
      <path
         d="m 0,7912.69 v -127.72 c 12.207,39.41 12.2031,76.2 0,127.72"
         style="fill:#ffffff;fill-opacity:1;fill-rule:nonzero;stroke:none"
         id="path174" />
      <path
         d="m 0,8715.54 v -538.41 c 35.1719,63.7 89.0078,118.59 89.043,267.91 C 89.0586,8549.5 54.1758,8641.21 0,8715.54"
         style="fill:#ffffff;fill-opacity:1;fill-rule:nonzero;stroke:none"
         id="path176" />
      <path
         d="m 502.539,6805.67 c 77.012,154.06 264.356,216.46 418.379,139.45 154.042,-77.05 216.462,-264.34 139.432,-418.38 C 983.281,6372.6 795.957,6310.12 641.875,6387.16 487.852,6464.2 425.469,6651.55 502.539,6805.67 Z m 10.645,-788.37 c 185.839,-43.12 581.566,-92.51 735.956,0.51 257.34,155.08 357.93,473.6 286.68,792.17 -33.87,151.43 -100.59,265.53 -232.69,315.94 -115.36,44.02 -245.98,128.43 -319.4,227.15 -96.191,129.3 -161.054,254.27 -338.144,292.69 C 393.184,7700.53 416.055,7395.62 228.984,7341.87 124.883,7311.94 51.0273,7256.07 0,7186.24 V 6438 c 27.2344,-36.44 61.7188,-70.14 108.438,-119.99 105.312,-112.4 257.031,-266.44 404.746,-300.71"
         style="fill:#ffffff;fill-opacity:1;fill-rule:nonzero;stroke:none"
         id="path178" />
      <path
         d="m 706.699,6878.2 c 7.813,-1.15 10.547,-17.2 8.555,-20.48 -24.981,-26.29 -43.867,-48.05 -80.586,-59.58 -5,-1.54 -17.48,-6.11 -20.703,-2.01 -26.192,33.17 11.621,96.87 92.734,82.07 z m 98.789,-434.89 c 13.262,26.53 54.258,64.47 69.688,79.48 60.039,58.52 64.98,229.21 127.984,97.05 17.23,-36.07 46.39,-42.62 14.05,-93.22 -43.538,-68.03 -126.976,-112.48 -211.37,-106.43 0,0 -2.031,19.77 -0.352,23.12 z m -163.613,-56.15 c 154.082,-77.04 341.406,-14.56 418.475,139.58 77.03,154.04 14.61,341.33 -139.432,418.38 -154.023,77.01 -341.367,14.61 -418.379,-139.45 -77.07,-154.12 -14.687,-341.47 139.336,-418.51"
         style="fill:#fcc917;fill-opacity:1;fill-rule:nonzero;stroke:none"
         id="path180" />
      <path
         d="m 1017.21,6526.62 c 32.34,50.6 3.18,57.15 -14.05,93.22 -63.004,132.16 -67.945,-38.53 -127.984,-97.05 -15.43,-15.01 -56.426,-52.95 -69.688,-79.48 -1.679,-3.35 0.352,-23.12 0.352,-23.12 84.394,-6.05 167.832,38.4 211.37,106.43"
         style="fill:#ffffff;fill-opacity:1;fill-rule:nonzero;stroke:none"
         id="path182" />
      <path
         d="m 634.668,6798.14 c 36.719,11.53 55.605,33.29 80.586,59.58 1.992,3.28 -0.742,19.33 -8.555,20.48 -81.113,14.8 -118.926,-48.9 -92.734,-82.07 3.223,-4.1 15.703,0.47 20.703,2.01"
         style="fill:#ffffff;fill-opacity:1;fill-rule:nonzero;stroke:none"
         id="path184" />
      <path
         d="m 492.168,9356.82 c 388.926,69.92 632.712,368.87 570.022,643.18 H 309.379 C 289.746,9840.63 160.953,9715.11 0,9700.63 v -411.02 c 235.691,-24.38 360.023,43.45 492.168,67.21"
         style="fill:#ffffff;fill-opacity:1;fill-rule:nonzero;stroke:none"
         id="path186" />
      <path
         d="m 1496.41,3655.1 c -83.31,170.97 -21.89,374.91 136.38,472.96 10.55,6.53 21.54,12.59 32.93,18.15 182.38,88.88 402.24,13.08 491.1,-169.31 2.77,-5.7 5.39,-11.44 7.85,-17.21 76.23,-178.88 -0.38,-387.96 -177.07,-474.08 -95.23,-46.4 -200.66,-47.8 -292.37,-12.64 v 0 c -83.91,32.17 -156.33,94.94 -198.82,182.13 z m 198.82,-771.71 c 116.07,-40.04 277.6,-58.51 387.15,-32.13 22.17,5.33 42.21,12.51 59.31,21.71 274.67,147.79 301.42,537.38 394.82,678.9 79.3,120.1 319.32,-76.09 424.32,233.78 101.44,299.31 -225.84,829.72 -611.69,848.65 -17.11,0.84 -33.19,1.38 -48.38,1.61 -146.88,2.16 -211.6,-25.67 -340.08,-104.88 -15.47,-9.55 -31.71,-18.86 -48.56,-27.85 -65.9,-35.16 -141.17,-65.28 -216.89,-84.76 v 0 c -59.76,-15.38 -119.8,-24.16 -175.73,-23.36 -189.83,2.68 -353.13,31.54 -515.93,-106.55 -3.621,-3.08 -7.125,-6.15 -10.504,-9.22 -179.3,-162.73 -23.371,-319.32 0.204,-495.8 0.445,-3.33 0.839,-6.67 1.195,-10.01 2.078,-20.07 2.355,-40.39 0.14,-61.02 -1.105,-10.31 -2.832,-20.7 -5.269,-31.17 -3.981,-17.11 -10.387,-33.15 -18.57,-48.43 -2.731,-5.1 -5.653,-10.11 -8.754,-15.05 -1.547,-2.46 -3.141,-4.92 -4.778,-7.35 -89.851,-133.93 -302.113,-218.12 -139.168,-499.95 41.5,-71.77 230.714,-53.84 420.314,-65.16 129.72,-7.73 259.61,-29.16 342.48,-102.36 25.49,-22.51 66.01,-42.92 114.37,-59.6 v 0"
         style="fill:#ffffff;fill-opacity:1;fill-rule:nonzero;stroke:none"
         id="path188" />
      <path
         d="m 1600.12,3891.29 c 6.72,-42.21 13.51,-75.44 -2.01,-118.03 -2.14,-5.78 -6.82,-20.72 -12.96,-20.82 -49.74,-0.72 -82.26,80.25 -10.31,145.52 6.66,6.49 23.65,-2.45 25.28,-6.67 z m 428.66,98.85 c 46.07,-9.75 73.09,12.84 97.24,-53.66 32.43,-89.42 14.21,-199.32 -51.89,-273.89 0,0 -19.93,12.25 -21.84,16.22 -15.32,31.41 -21.44,96.95 -24.44,122.13 -11.69,98.03 -167.77,224.94 0.93,189.2 z m -333.55,-517.17 c 91.71,-35.16 197.14,-33.76 292.37,12.64 176.69,86.12 253.3,295.2 177.07,474.08 -2.46,5.77 -5.08,11.51 -7.85,17.21 -88.86,182.39 -308.72,258.19 -491.1,169.31 -11.39,-5.56 -22.38,-11.62 -32.93,-18.15 -158.27,-98.05 -219.69,-301.99 -136.38,-472.96 42.49,-87.19 114.91,-149.96 198.82,-182.13 v 0"
         style="fill:#fcc917;fill-opacity:1;fill-rule:nonzero;stroke:none"
         id="path190" />
      <path
         d="m 1574.84,3897.96 c -71.95,-65.27 -39.43,-146.24 10.31,-145.52 6.14,0.1 10.82,15.04 12.96,20.82 15.52,42.59 8.73,75.82 2.01,118.03 -1.63,4.22 -18.62,13.16 -25.28,6.67"
         style="fill:#ffffff;fill-opacity:1;fill-rule:nonzero;stroke:none"
         id="path192" />
      <path
         d="M 575.09,414.961 C 423.652,461.461 343.887,599.57 205.059,693.512 153.441,728.43 81.7734,746.449 0,751.25 V 384.313 C 174.984,368.551 312.078,221.531 312.078,42.3789 312.078,28.0195 311.094,13.9023 309.379,0 h 752.811 c -37.97,166.152 -188.327,323.262 -487.1,414.961"
         style="fill:#ffffff;fill-opacity:1;fill-rule:nonzero;stroke:none"
         id="path194" />
      <path
         d="M 0,384.313 V 0 h 134.879 c 1.793,40.9102 10.644,97.75 -3.133,137.402 -7.793,22.387 -29.48,79.918 -29.48,112.59 0,4.09 11.718,22.559 11.718,22.559 C 200.02,236.949 260.32,152.121 269.656,63.7422 274.047,22.2695 262.938,10.1211 245.449,0 h 63.93 c 1.715,13.9023 2.699,28.0195 2.699,42.3789 C 312.078,221.531 174.984,368.551 0,384.313"
         style="fill:#fcc917;fill-opacity:1;fill-rule:nonzero;stroke:none"
         id="path196" />
      <path
         d="M 269.656,63.7422 C 260.32,152.121 200.02,236.949 113.984,272.551 c 0,0 -11.718,-18.469 -11.718,-22.559 0,-32.672 21.687,-90.203 29.48,-112.59 C 145.523,97.75 136.672,40.9102 134.879,0 h 110.57 c 17.489,10.1211 28.598,22.2695 24.207,63.7422"
         style="fill:#ffffff;fill-opacity:1;fill-rule:nonzero;stroke:none"
         id="path198" />
      <path
         d="m 0,2912.7 v -127.73 c 12.207,39.4 12.2031,76.19 0,127.73"
         style="fill:#ffffff;fill-opacity:1;fill-rule:nonzero;stroke:none"
         id="path200" />
      <path
         d="m 0,3715.54 v -538.41 c 35.1719,63.7 89.0078,118.59 89.043,267.91 C 89.0586,3549.5 54.1758,3641.21 0,3715.54"
         style="fill:#ffffff;fill-opacity:1;fill-rule:nonzero;stroke:none"
         id="path202" />
      <path
         d="m 502.539,1805.67 c 77.012,154.06 264.356,216.46 418.379,139.45 154.042,-77.05 216.462,-264.34 139.432,-418.38 C 983.281,1372.6 795.957,1310.12 641.875,1387.16 487.852,1464.2 425.469,1651.55 502.539,1805.67 Z m 10.645,-788.37 c 185.839,-43.12 581.566,-92.511 735.956,0.51 257.34,155.08 357.93,473.6 286.68,792.17 -33.87,151.43 -100.59,265.53 -232.69,315.94 -115.36,44.02 -245.98,128.43 -319.4,227.15 -96.191,129.3 -161.054,254.27 -338.144,292.69 C 393.184,2700.53 416.055,2395.62 228.984,2341.87 124.883,2311.94 51.0273,2256.06 0,2186.24 V 1438 c 27.2344,-36.44 61.7188,-70.14 108.438,-119.99 105.312,-112.4 257.031,-266.44 404.746,-300.71"
         style="fill:#ffffff;fill-opacity:1;fill-rule:nonzero;stroke:none"
         id="path204" />
      <path
         d="m 706.699,1878.2 c 7.813,-1.15 10.547,-17.2 8.555,-20.48 -24.981,-26.29 -43.867,-48.05 -80.586,-59.58 -5,-1.54 -17.48,-6.11 -20.703,-2.01 -26.192,33.17 11.621,96.87 92.734,82.07 z m 98.789,-434.89 c 13.262,26.53 54.258,64.47 69.688,79.48 60.039,58.52 64.98,229.21 127.984,97.05 17.23,-36.07 46.39,-42.62 14.05,-93.22 -43.538,-68.03 -126.976,-112.48 -211.37,-106.43 0,0 -2.031,19.77 -0.352,23.12 z m -163.613,-56.15 c 154.082,-77.04 341.406,-14.56 418.475,139.58 77.03,154.04 14.61,341.33 -139.432,418.38 -154.023,77.01 -341.367,14.61 -418.379,-139.45 -77.07,-154.12 -14.687,-341.47 139.336,-418.51"
         style="fill:#fcc917;fill-opacity:1;fill-rule:nonzero;stroke:none"
         id="path206" />
      <path
         d="m 1017.21,1526.62 c 32.34,50.6 3.18,57.15 -14.05,93.22 -63.004,132.16 -67.945,-38.53 -127.984,-97.05 -15.43,-15.01 -56.426,-52.95 -69.688,-79.48 -1.679,-3.35 0.352,-23.12 0.352,-23.12 84.394,-6.05 167.832,38.4 211.37,106.43"
         style="fill:#ffffff;fill-opacity:1;fill-rule:nonzero;stroke:none"
         id="path208" />
      <path
         d="m 634.668,1798.14 c 36.719,11.53 55.605,33.29 80.586,59.58 1.992,3.28 -0.742,19.33 -8.555,20.48 -81.113,14.8 -118.926,-48.9 -92.734,-82.07 3.223,-4.1 15.703,0.47 20.703,2.01"
         style="fill:#ffffff;fill-opacity:1;fill-rule:nonzero;stroke:none"
         id="path210" />
      <path
         d="m 492.168,4356.82 c 624.502,112.27 874.962,815.05 82.922,1058.14 -151.438,46.5 -231.203,184.61 -370.031,278.55 C 153.441,5728.43 81.7734,5746.45 0,5751.25 v -366.94 c 174.984,-15.75 312.078,-162.78 312.078,-341.93 0,-179.05 -137.094,-326 -312.078,-341.75 v -411.02 c 235.691,-24.39 360.023,43.45 492.168,67.21"
         style="fill:#ffffff;fill-opacity:1;fill-rule:nonzero;stroke:none"
         id="path212" />
    </g>
  </g>
</svg>
