<?xml version="1.0" encoding="UTF-8"?>
<svg width="1086px" height="1033px" viewBox="0 0 1086 1033" version="1.1" xmlns="http://www.w3.org/2000/svg" xmlns:xlink="http://www.w3.org/1999/xlink">
    <!-- Generator: Sketch 59.1 (86144) - https://sketch.com -->
    <title>shutterstock_1322761526</title>
    <desc>Created with Sketch.</desc>
    <defs>
        <path d="M7.167,104.758 C4.858,104.758 2.717,104.024 1.553,102.087 C0.843,100.904 0.663,99.484 0.571,98.107 C-0.266,85.637 4.726,73.513 10.722,62.547 C24.015,38.236 41.647,15.684 67.824,4.869 C72.1,3.103 79.197,0.389 85.334,0.389 C89.817,0.389 93.788,1.838 95.769,6.163 C99.556,14.434 78.465,27.481 73.795,32.069 C61.514,44.133 50.598,57.584 41.336,72.094 C33.509,84.357 25.862,98.263 12.366,103.693 C10.773,104.334 8.922,104.758 7.167,104.758 L7.167,104.758 Z" id="path-1"></path>
    </defs>
    <g id="shutterstock_1322761526" stroke="none" stroke-width="1" fill="none" fill-rule="evenodd">
        <path d="M452.893178,868.0105 C452.747959,856.011504 434.177802,855.981506 434.323021,868.0105 C434.532893,885.349049 434.442379,902.687598 434.020647,920.026147 C433.816743,928.405446 433.537246,936.794744 433.184144,945.174043 C432.99516,949.643669 432.784294,954.113295 432.553535,958.582921 C432.472968,960.122792 432.63808,963.13254 432.474957,965.502342 C432.025375,965.502342 431.603642,965.492342 431.289332,965.502342 C429.022519,965.622332 426.754712,965.682327 424.4879,965.782318 C419.853815,966.0023 415.139164,966.36227 410.608523,967.402183 C402.039594,969.372018 389.198634,976.51142 391.210816,987.110534 C393.58704,999.629486 409.662609,998.62957 419.232158,997.149693 C429.412423,995.579825 438.489619,990.950212 446.465735,984.530749 C448.932473,982.550915 449.620772,979.231193 448.978227,976.151451 C449.348237,975.381515 449.667521,974.551584 449.908227,973.621662 C451.607093,967.082209 451.094847,959.43285 451.415125,952.713412 C452.7589,924.505772 453.235338,896.258136 452.893178,868.0105" id="Fill-3" fill="#343532"></path>
        <path d="M631.106925,868.0105 C631.251151,856.011504 649.822491,855.981506 649.67727,868.0105 C649.467397,885.349049 649.556916,902.687598 649.978653,920.026147 C650.182559,928.405446 650.463054,936.794744 650.816159,945.174043 C651.005145,949.643669 651.215018,954.113295 651.446775,958.582921 C651.527342,960.122792 651.362228,963.13254 651.525353,965.502342 C651.973946,965.502342 652.396677,965.492342 652.709996,965.502342 C654.977826,965.622332 657.245656,965.682327 659.512491,965.782318 C664.145628,966.0023 668.861322,966.36227 673.391014,967.402183 C681.961025,969.372018 694.798136,976.51142 692.789913,987.110534 C690.413665,999.629486 674.337933,998.62957 664.767292,997.149693 C654.587918,995.579825 645.51063,990.950212 637.534433,984.530749 C635.067671,982.550915 634.379364,979.231193 635.021916,976.151451 C634.651902,975.381515 634.332615,974.551584 634.091907,973.621662 C632.393024,967.082209 632.90428,959.43285 632.584993,952.713412 C631.24021,924.505772 630.764761,896.258136 631.106925,868.0105" id="Fill-4" fill="#343532"></path>
        <path d="M1061.81526,319.336224 C1061.036,314.23009 1054.23248,310.805658 1049.59689,312.390321 C1034.88091,317.426426 1028.44704,332.181595 1030.50508,346.95277 C1031.03457,350.820387 1032.01364,354.526937 1033.40232,358.173461 C1034.5812,361.285763 1036.78909,364.800232 1036.85903,368.179645 C1036.9889,373.569898 1033.91183,380.133643 1032.00365,385.088714 C1024.0812,405.714337 1009.26531,424.348128 991.322394,437.148479 C980.53267,444.8517 968.723917,450.706147 955.986048,454.381684 C943.727723,457.919163 948.942756,477.11919 961.271015,473.562703 C984.818589,466.768863 1006.34808,453.423283 1023.05218,435.463775 C1031.28434,426.608073 1038.51745,416.647908 1044.16207,405.944434 C1049.93657,395.010862 1055.83096,381.904383 1056.6302,369.392152 C1056.68015,368.614827 1056.67016,367.853509 1056.6302,367.099193 C1056.78005,366.787063 1056.91992,366.46893 1057.0498,366.142793 C1063.05408,351.150525 1064.25294,335.209861 1061.81526,319.336224" id="Fill-5" fill="#343532"></path>
        <path d="M23.1811149,578.658347 C23.9643943,583.77043 30.768135,587.191823 35.3998739,585.61118 C50.1193323,580.569126 56.5534131,565.813115 54.4993028,551.047099 C53.9607982,547.175522 52.9896916,543.474015 51.5999702,539.822527 C50.4130621,536.71126 48.2120869,533.199829 48.1351577,529.818452 C48.0122708,524.426255 51.0904389,517.863582 52.994687,512.911565 C60.9223937,492.283161 75.7327685,473.650571 93.6752618,460.850357 C104.47133,453.148219 116.273472,447.292834 129.011753,443.617337 C141.272473,440.079896 136.05827,420.880075 123.730612,424.437524 C100.183275,431.231291 78.6470874,444.575727 61.9504479,462.536044 C53.7170225,471.390651 46.4776826,481.350708 40.8328757,492.053068 C35.06718,502.987522 29.1656093,516.092861 28.3693418,528.607959 C28.3193878,529.388277 28.3323758,530.148586 28.3703409,530.898892 C28.2184806,531.209018 28.0766111,531.529149 27.9457316,531.859283 C21.94725,546.845388 20.7493521,562.791884 23.1811149,578.658347" id="Fill-6" fill="#343532"></path>
        <path d="M841.726665,162 C911.246192,238.251005 953.647606,339.66941 953.647606,450.993218 C953.647606,687.945082 761.591792,880.024714 524.685636,880.024714 C408.069754,880.024714 302.322107,833.486917 225,757.956723 C303.449613,844.004159 416.441084,898 542.045027,898 C778.954181,898 971,705.910371 971,468.964505 C971,348.652055 921.491701,239.906571 841.726665,162" id="Fill-14" fill="#E9E7D9"></path>
        <path d="M954,451.016869 C954,339.70561 911.576469,238.298638 842.020679,162.056229 C764.664241,86.538548 658.859434,40 542.182723,40 C305.150994,40 113,232.062976 113,468.98613 C113,580.302387 155.416531,681.704361 224.97232,757.94577 C302.334759,833.46745 408.137566,880 524.814277,880 C761.844006,880 954,687.942022 954,451.016869" id="Fill-15" fill="#FCFAF2"></path>
        <path d="M705.683504,318.822668 C702.272539,315.092647 698.731537,311.489762 695.070501,308 C721.638017,344.694561 737.302448,389.808199 737.302448,438.586789 C737.302448,561.649466 637.62025,661.417028 514.653465,661.417028 C455.071611,661.417028 400.957303,637.991772 361,599.840641 C401.460445,655.680843 467.165032,692 541.354018,692 C664.319803,692 764,592.232438 764,469.170762 C764,411.229294 741.903749,358.454396 705.683504,318.822668" id="Fill-16" fill="#EFA941"></path>
        <path d="M737,438.20922 C737,389.439268 721.358,344.333619 694.828527,307.645555 C654.924446,269.461143 600.86765,246 541.332158,246 C418.540457,246 319,345.745891 319,468.787777 C319,510.644499 330.524738,549.809795 350.56268,583.269949 C353.888853,588.824956 357.454749,594.209808 361.236398,599.434517 C401.136484,637.578893 455.172304,661 514.669839,661 C637.460542,661 737,561.250105 737,438.20922" id="Fill-17" fill="#F4BA52"></path>
        <path d="M424,450.5 C424,439.177862 433.17864,430 444.500501,430 C455.822362,430 465,439.177862 465,450.5 C465,461.822138 455.822362,471 444.500501,471 C433.17864,471 424,461.822138 424,450.5" id="Fill-18" fill="#343532"></path>
        <path d="M619,450.5 C619,439.177862 628.179419,430 639.5,430 C650.821584,430 660,439.177862 660,450.5 C660,461.822138 650.821584,471 639.5,471 C628.179419,471 619,461.822138 619,450.5" id="Fill-19" fill="#343532"></path>
        <path d="M565,463 C565,475.703957 554.478241,486 541.500502,486 C528.520755,486 518,475.703957 518,463 L565,463" id="Fill-20" fill="#343532"></path>
        <g id="Group-23" transform="translate(351.000000, 302.000000)">
            <mask id="mask-2" fill="white">
                <use xlink:href="#path-1"></use>
            </mask>
            <g id="Clip-22"></g>
            <polygon id="Fill-21" fill="#FBD691" mask="url(#mask-2)" points="-0.266 104.758 99.556 104.758 99.556 0.389 -0.266 0.389"></polygon>
        </g>
        <path d="M232.667261,198.378551 C240.742939,196.537217 248.781079,201.5915 250.62144,209.666989 C252.462817,217.742477 247.408416,225.781444 239.332739,227.621763 C231.257061,229.462082 223.218921,224.408814 221.37856,216.333325 C219.537183,208.257836 224.591584,200.218869 232.667261,198.378551" id="Fill-24" fill="#E9E7D9"></path>
        <path d="M203.83269,233.189088 C207.870353,232.268947 211.889756,234.796038 212.810912,238.833703 C213.731053,242.871367 211.203962,246.889756 207.166299,247.810912 C203.128635,248.731053 199.109232,246.203962 198.189091,242.166297 C197.26895,238.128633 199.79604,234.109229 203.83269,233.189088" id="Fill-25" fill="#E9E7D9"></path>
        <path d="M231.500375,247.11378 C233.922485,246.560689 236.333494,248.077653 236.886543,250.499949 C237.438582,252.923255 235.922745,255.33445 233.499625,255.886532 C231.077515,256.438613 228.665496,254.922659 228.113457,252.500363 C227.561418,250.077057 229.077255,247.665862 231.500375,247.11378" id="Fill-26" fill="#E9E7D9"></path>
        <path d="M725.422734,761.540151 C720.158506,755.146435 721.066132,745.697046 727.459849,740.422734 C733.853565,735.158506 743.302954,736.066132 748.577266,742.459849 C753.841494,748.853565 752.933868,758.302954 746.540151,763.577266 C740.146435,768.841494 730.697046,767.933868 725.422734,761.540151" id="Fill-27" fill="#E9E7D9"></path>
        <path d="M769.711367,772.269749 C767.079253,769.072508 767.533066,764.35229 770.729924,761.719861 C773.926783,759.077346 778.656519,759.531213 781.288633,762.728455 C783.920747,765.925696 783.466934,770.655999 780.270076,773.288428 C777.073217,775.920857 772.343481,775.46699 769.711367,772.269749" id="Fill-28" fill="#E9E7D9"></path>
        <path d="M770.032491,741.359552 C768.447179,739.44315 768.718087,736.603666 770.634508,735.028404 C772.55093,733.443108 775.390444,733.724047 776.975756,735.640448 C778.551035,737.55685 778.280127,740.396334 776.363705,741.971596 C774.447284,743.556892 771.60777,743.275953 770.032491,741.359552" id="Fill-29" fill="#E9E7D9"></path>
    </g>
</svg>