<?xml version="1.0" encoding="UTF-8" standalone="no"?>
<!-- Created with Inkscape (http://www.inkscape.org/) -->

<svg
   version="1.1"
   id="svg2"
   width="6666.6665"
   height="5333.3335"
   viewBox="0 0 6666.6665 5333.3335"
   sodipodi:docname="shutterstock_1857595651.eps"
   xmlns:inkscape="http://www.inkscape.org/namespaces/inkscape"
   xmlns:sodipodi="http://sodipodi.sourceforge.net/DTD/sodipodi-0.dtd"
   xmlns="http://www.w3.org/2000/svg"
   xmlns:svg="http://www.w3.org/2000/svg">
  <defs
     id="defs6" />
  <sodipodi:namedview
     id="namedview4"
     pagecolor="#ffffff"
     bordercolor="#000000"
     borderopacity="0.25"
     inkscape:showpageshadow="2"
     inkscape:pageopacity="0.0"
     inkscape:pagecheckerboard="0"
     inkscape:deskcolor="#d1d1d1" />
  <g
     id="g8"
     inkscape:groupmode="layer"
     inkscape:label="ink_ext_XXXXXX"
     transform="matrix(1.3333333,0,0,-1.3333333,0,5333.3333)">
    <g
       id="g10"
       transform="scale(0.1)">
      <path
         d="m 15849.1,13360.1 c -54.4,-37.9 -126,-65.5 -215,-82.8 -89,-17.3 -180.4,-26 -274.4,-26 -110.4,0 -216.2,16.5 -317.6,49.4 -101.3,33 -191.1,85.7 -269.4,158.2 -78.2,72.5 -140.4,165.6 -186.6,279.3 -46.1,113.7 -69.2,251.3 -69.2,412.7 0,168.1 26.4,309.4 79.1,423.9 52.8,114.5 120.3,206.8 202.7,276.8 82.4,70.1 173.8,120.7 274.3,152 100.5,31.3 199.4,47 296.6,47 107.1,0 197.3,-6.6 270.7,-19.8 73.3,-13.2 133.8,-28.8 181.6,-46.9 l -71.7,-306.5 c -41.1,18.1 -89.3,31.3 -144.6,39.5 -55.1,8.3 -124.8,12.4 -208.8,12.4 -74.1,0 -141.3,-11.9 -201.4,-35.8 -60.2,-23.9 -111.6,-59.8 -154.5,-107.6 -42.8,-47.7 -76.2,-107.9 -100.1,-180.4 -23.9,-72.5 -35.8,-157.3 -35.8,-254.6 0,-85.6 10.7,-163.9 32.1,-234.7 21.4,-70.9 53.5,-131.9 96.4,-182.9 42.8,-51.1 97.2,-90.7 163.1,-118.7 65.9,-28 142.5,-42 229.9,-42 80.7,0 148.7,7.4 203.9,22.3 55.2,14.8 104.2,33.7 147,56.8 l 71.7,-291.6"
         style="fill:#000000;fill-opacity:1;fill-rule:nonzero;stroke:none"
         id="path12" />
      <path
         d="m 16125.9,14150.9 c 0,141.8 18.1,268.6 54.4,380.7 36.2,112 88.6,206.3 156.9,283 68.4,76.6 152,135.1 250.9,175.4 98.8,40.4 210.9,60.6 336.1,60.6 133.5,0 250.1,-21.8 349.7,-65.5 99.7,-43.7 182.9,-105 249.7,-184.1 66.7,-79.1 117,-173.9 150.7,-284.3 33.8,-110.3 50.7,-232.3 50.7,-365.8 0,-141.6 -18.5,-268.5 -55.6,-380.6 -37.1,-112 -90.2,-206.3 -159.4,-283 -69.2,-76.6 -153.3,-135.1 -252.1,-175.4 -98.9,-40.4 -210.1,-60.6 -333.7,-60.6 -133.4,0 -250,21.8 -349.7,65.5 -99.7,43.7 -182.9,105.1 -249.6,184.1 -66.8,79.1 -116.6,173.9 -149.6,284.3 -32.9,110.4 -49.4,232.3 -49.4,365.7 z m 388,0 c 0,-85.6 8.3,-163.9 24.8,-234.7 16.4,-70.9 41.2,-131.9 74.1,-182.9 33,-51.1 75.4,-90.7 127.3,-118.7 51.9,-28 113.3,-42 184.1,-42 130.2,0 231.5,44.5 304,133.5 72.5,89 108.8,237.2 108.8,444.8 0,82.4 -7.4,159 -22.3,229.9 -14.8,70.9 -39.1,132.2 -72.9,184.1 -33.8,51.9 -76.6,92.3 -128.5,121.1 -51.9,28.9 -114.9,43.3 -189.1,43.3 -128.5,0 -229,-46.1 -301.5,-138.4 -72.5,-92.3 -108.8,-238.9 -108.8,-440"
         style="fill:#000000;fill-opacity:1;fill-rule:nonzero;stroke:none"
         id="path14" />
      <path
         d="m 19640.5,14153.4 39.5,358.4 h -14.8 l -118.7,-271.9 -400.4,-645 h -113.7 l -425,647.5 -116.2,266.9 h -14.8 l 51.9,-353.4 v -870 h -346.1 V 15016 h 331.2 l 499.3,-798.3 93.9,-190.3 h 12.4 l 81.5,195.2 477,793.4 h 328.7 v -1730.1 h -365.7 v 867.5"
         style="fill:#000000;fill-opacity:1;fill-rule:nonzero;stroke:none"
         id="path16" />
      <path
         d="m 20525.3,14998.7 c 74.1,13.2 156.5,23.5 247.1,30.9 90.6,7.4 181.3,11.1 271.9,11.1 92.3,0 185.4,-7 279.3,-21 93.9,-14 178.3,-42 253.3,-84 75,-42 136.4,-100.5 184.1,-175.5 47.8,-75 71.7,-174.3 71.7,-297.8 0,-108.8 -20.6,-201.5 -61.8,-278.1 -41.2,-76.6 -95.9,-138.8 -164.3,-186.6 -68.4,-47.8 -146.3,-82.8 -233.6,-105 -87.3,-22.3 -177.1,-33.4 -269.4,-33.4 -8.2,0 -22.2,0 -42,0 -19.8,0 -40.8,0.4 -63,1.3 -22.3,0.8 -43.3,2 -63.1,3.7 -19.7,1.6 -34.6,3.3 -44.4,4.9 v -583.3 h -365.8 z m 543.7,-279.3 c -34.6,0 -68,-0.8 -100.1,-2.5 -32.1,-1.6 -58.1,-4.9 -77.8,-9.8 V 14193 c 6.5,-1.7 17.3,-3.3 32.1,-5 14.8,-1.6 30.5,-2.9 46.9,-3.7 16.5,-0.8 31.8,-1.6 45.8,-2.4 14,-0.9 25.1,-1.3 33.3,-1.3 47.8,0 95.6,3.3 143.4,9.9 47.8,6.6 90.2,20.6 127.3,42 37,21.4 67.1,50.7 90.2,87.8 23,37 34.6,86.9 34.6,149.5 0,52.7 -10.7,95.1 -32.1,127.3 -21.5,32.1 -49.9,57.2 -85.3,75.3 -35.4,18.2 -75.8,30.5 -121.1,37.1 -45.3,6.6 -91.1,9.9 -137.2,9.9"
         style="fill:#000000;fill-opacity:1;fill-rule:nonzero;stroke:none"
         id="path18" />
      <path
         d="m 22977,13654.2 h -583.2 l -140.9,-368.3 h -365.8 l 677.2,1742.5 h 269.4 l 679.7,-1742.5 h -388.1 z m -481.9,289.1 h 395.4 l -133.4,360.9 -59.3,274.3 h -12.4 l -59.3,-276.8 -131,-358.4"
         style="fill:#000000;fill-opacity:1;fill-rule:nonzero;stroke:none"
         id="path20" />
      <path
         d="m 24338.9,14188 -148.3,259.5 h -12.4 l 39.6,-261.9 v -899.7 h -346.1 v 1742.5 h 264.5 l 714.3,-921.9 140.9,-252.1 h 14.8 l -39.6,254.5 v 907.1 h 346 v -1742.4 h -264.4 l -709.3,914.4"
         style="fill:#000000;fill-opacity:1;fill-rule:nonzero;stroke:none"
         id="path22" />
      <path
         d="m 26284,13923.6 -617.9,1092.4 h 435 l 346,-635.2 39.5,-185.4 h 12.4 l 42,190.4 333.7,630.2 h 392.9 l -617.8,-1090 v -640.1 H 26284 v 637.7"
         style="fill:#000000;fill-opacity:1;fill-rule:nonzero;stroke:none"
         id="path24" />
      <path
         d="m 28696.2,14188 -148.3,259.5 h -12.3 l 39.5,-261.9 v -899.7 h -346 v 1742.5 h 264.4 l 714.3,-921.9 140.9,-252.1 h 14.8 l -39.5,254.5 v 907.1 h 346 v -1742.4 h -264.5 l -709.3,914.4"
         style="fill:#000000;fill-opacity:1;fill-rule:nonzero;stroke:none"
         id="path26" />
      <path
         d="M 31118.3,13654.2 H 30535 l -140.8,-368.3 h -365.8 l 677.2,1742.5 h 269.4 l 679.6,-1742.5 h -388 z m -481.9,289.1 h 395.4 l -133.5,360.9 -59.3,274.3 h -12.3 l -59.3,-276.8 -131,-358.4"
         style="fill:#000000;fill-opacity:1;fill-rule:nonzero;stroke:none"
         id="path28" />
      <path
         d="m 33471.2,14153.4 39.6,358.4 h -14.9 l -118.6,-271.9 -400.4,-645 h -113.7 l -425.1,647.5 -116.1,266.9 h -14.9 l 51.9,-353.4 v -870 h -346 V 15016 h 331.2 l 499.2,-798.3 94,-190.3 h 12.3 l 81.6,195.2 477,793.4 h 328.7 v -1730.1 h -365.8 v 867.5"
         style="fill:#000000;fill-opacity:1;fill-rule:nonzero;stroke:none"
         id="path30" />
      <path
         d="m 34356,15016 h 1114.7 v -321.3 h -748.9 V 14319 h 679.7 v -321.3 h -679.7 v -390.5 h 761.3 v -321.3 H 34356 V 15016"
         style="fill:#000000;fill-opacity:1;fill-rule:nonzero;stroke:none"
         id="path32" />
      <path
         d="m 17765.1,12197 c 0,26.9 -9,48.3 -26.9,64.1 -17.9,15.8 -40.4,29.4 -67.6,40.9 -27.2,11.5 -56.4,22.4 -87.5,32.7 -31.2,10.2 -60.4,23.3 -87.6,39.2 -27.1,16 -49.7,36.5 -67.6,61.7 -17.9,25.2 -26.8,58 -26.8,98.5 0,56.3 20.7,101.8 62.1,136.2 41.5,34.5 100.6,51.8 177.6,51.8 44.4,0 85.1,-3.4 122.3,-10 37.1,-6.6 66.3,-15.2 87.5,-25.8 l -30.8,-83.6 c -16.6,8.1 -41.5,15.4 -74.6,22 -33.2,6.6 -69.6,9.8 -109.4,9.8 -45.1,0 -78.9,-9.5 -101.5,-28.6 -22.5,-19 -33.8,-41 -33.8,-66 0,-25.6 9,-46.3 26.9,-62.1 17.9,-15.7 40.4,-29.7 67.6,-41.9 27.2,-12.1 56.4,-23.8 87.5,-35.1 31.2,-11.3 60.4,-25.2 87.5,-41.8 27.2,-16.5 49.8,-36.9 67.7,-61.1 17.9,-24.2 26.8,-55.2 26.8,-93 0,-31.2 -5.9,-59.4 -17.9,-84.6 -11.9,-25.1 -29.2,-46.7 -51.7,-64.6 -22.5,-17.9 -49.7,-31.7 -81.5,-41.3 -31.9,-9.6 -68,-14.4 -108.5,-14.4 -54.3,0 -100.2,4.1 -137.7,12.4 -37.5,8.3 -65.8,17.1 -85,26.4 l 32.8,86.5 c 16.6,-8.2 41.6,-16.5 75.1,-25 33.5,-8.5 70.4,-12.8 110.9,-12.8 23.2,0 44.7,2.2 64.6,6.4 19.9,4.3 37.3,10.9 52.2,19.8 15,8.8 26.6,20.2 34.8,34 8.3,13.8 12.5,30.2 12.5,49.3"
         style="fill:#000000;fill-opacity:1;fill-rule:nonzero;stroke:none"
         id="path34" />
      <path
         d="m 18854.1,12012.9 h -455.5 v 696.2 h 99.5 v -608.7 h 356 v -87.5"
         style="fill:#000000;fill-opacity:1;fill-rule:nonzero;stroke:none"
         id="path36" />
      <path
         d="m 19262.9,12361 c 0,57.1 7.1,107.9 21.4,152.7 14.2,44.7 34.8,82.5 61.6,113.4 26.9,30.8 59.7,54.3 98.5,70.6 38.8,16.2 82.7,24.4 131.8,24.4 52.3,0 98.3,-8.8 137.7,-26.4 39.5,-17.6 72.3,-42.1 98.5,-73.6 26.2,-31.5 45.7,-69.5 58.7,-113.9 12.9,-44.4 19.3,-93.5 19.3,-147.2 0,-57 -7.1,-107.9 -21.3,-152.6 -14.3,-44.8 -35,-82.6 -62.2,-113.4 -27.2,-30.8 -60.2,-54.4 -99,-70.6 -38.7,-16.3 -82.7,-24.4 -131.7,-24.4 -53.1,0 -99.2,8.8 -138.3,26.4 -39.1,17.5 -71.6,42.1 -97.4,73.5 -25.9,31.5 -45.3,69.5 -58.2,113.9 -13,44.5 -19.4,93.5 -19.4,147.2 z m 105.4,0 c 0,-37.5 4.1,-72.7 12.4,-105.6 8.3,-32.9 20.9,-61.9 37.8,-86.9 16.9,-25 38.5,-44.8 64.7,-59.2 26.2,-14.5 57.2,-21.8 93,-21.8 64.3,0 115.2,22.1 152.6,66.2 37.5,44.1 56.2,113.2 56.2,207.3 0,36.9 -4.1,71.8 -12.4,104.7 -8.3,32.9 -20.9,61.9 -37.8,86.9 -16.9,25 -38.5,44.9 -64.6,59.7 -26.2,14.8 -57.6,22.2 -94,22.2 -63.7,0 -114.3,-22.4 -151.7,-67.1 -37.5,-44.8 -56.2,-113.6 -56.2,-206.4"
         style="fill:#000000;fill-opacity:1;fill-rule:nonzero;stroke:none"
         id="path38" />
      <path
         d="m 20692.1,12364 h 260.5 v -307.3 c -11.9,-9.3 -26.2,-17.4 -42.7,-24.4 -16.6,-6.9 -34.3,-12.7 -53.2,-17.4 -18.9,-4.6 -38.3,-8.3 -58.2,-10.9 -19.9,-2.7 -39.5,-4 -58.7,-4 -47.7,0 -92,7.1 -132.8,21.4 -40.7,14.2 -76.2,36.3 -106.4,66.1 -30.2,29.9 -53.9,67.5 -71.1,112.9 -17.2,45.4 -25.9,99 -25.9,160.6 0,64.3 10.5,119.4 31.4,165.1 20.9,45.8 47.9,83.2 81,112.4 33.2,29.2 70.1,50.4 110.9,63.7 40.8,13.2 81.4,19.9 121.9,19.9 43.7,0 80,-2.5 108.8,-7.5 28.9,-5 52.9,-11.1 72.2,-18.4 l -23.9,-84.5 c -34.5,15.2 -84.2,22.8 -149.2,22.8 -29.8,0 -59.5,-4.6 -89,-13.9 -29.5,-9.3 -56,-24.7 -79.6,-46.2 -23.5,-21.6 -42.6,-49.8 -57.2,-84.6 -14.5,-34.8 -21.8,-77.7 -21.8,-128.8 0,-47.1 6.1,-87.8 18.4,-122.3 12.2,-34.5 29.3,-63 51.2,-85.5 21.9,-22.6 47.7,-39.2 77.6,-49.8 29.8,-10.6 62.3,-15.9 97.4,-15.9 21.9,0 43,2.2 63.2,6.4 20.2,4.3 37.9,10.4 53.2,18.2 v 174.3 l -178,18.4 v 59.2"
         style="fill:#000000;fill-opacity:1;fill-rule:nonzero;stroke:none"
         id="path40" />
      <path
         d="m 21861.4,12196.9 h -273 l -72.8,-184 h -99.5 l 286.4,706.2 h 51.8 l 287.4,-706.2 h -105.4 z m -243.4,81.6 h 214.8 l -79.8,197.9 -26.6,106.4 h -2 l -26.6,-108.4 -79.8,-195.9"
         style="fill:#000000;fill-opacity:1;fill-rule:nonzero;stroke:none"
         id="path42" />
      <path
         d="m 22681.2,12455.5 -59.7,97.5 h -4 l 12,-97.5 v -442.6 h -93.5 v 706.2 h 55.7 l 355,-451.6 56.7,-92.5 h 5 l -11.9,92.5 v 441.6 h 93.5 V 12003 h -55.7 l -353.1,452.5"
         style="fill:#000000;fill-opacity:1;fill-rule:nonzero;stroke:none"
         id="path44" />
      <path
         d="m 24530.1,12364 h 260.5 v -307.3 c -11.9,-9.3 -26.1,-17.4 -42.7,-24.4 -16.6,-6.9 -34.3,-12.7 -53.2,-17.4 -18.9,-4.6 -38.3,-8.3 -58.2,-10.9 -19.9,-2.7 -39.5,-4 -58.7,-4 -47.7,0 -92,7.1 -132.8,21.4 -40.7,14.2 -76.2,36.3 -106.4,66.1 -30.2,29.9 -53.8,67.5 -71.1,112.9 -17.2,45.4 -25.8,99 -25.8,160.6 0,64.3 10.4,119.4 31.3,165.1 20.9,45.8 47.9,83.2 81,112.4 33.2,29.2 70.2,50.4 110.9,63.7 40.8,13.2 81.4,19.9 121.9,19.9 43.7,0 80,-2.5 108.9,-7.5 28.8,-5 52.8,-11.1 72.1,-18.4 l -23.9,-84.5 c -34.5,15.2 -84.2,22.8 -149.2,22.8 -29.8,0 -59.5,-4.6 -89,-13.9 -29.5,-9.3 -56,-24.7 -79.6,-46.2 -23.5,-21.6 -42.6,-49.8 -57.2,-84.6 -14.5,-34.8 -21.8,-77.7 -21.8,-128.8 0,-47.1 6.1,-87.8 18.4,-122.3 12.2,-34.5 29.3,-63 51.2,-85.5 21.9,-22.6 47.7,-39.2 77.6,-49.8 29.8,-10.6 62.3,-15.9 97.4,-15.9 21.9,0 43,2.2 63.2,6.4 20.2,4.3 38,10.4 53.2,18.2 v 174.3 l -178,18.4 v 59.2"
         style="fill:#000000;fill-opacity:1;fill-rule:nonzero;stroke:none"
         id="path46" />
      <path
         d="m 25303.8,12361 c 0,57.1 7.2,107.9 21.4,152.7 14.3,44.7 34.8,82.5 61.7,113.4 26.8,30.8 59.7,54.3 98.5,70.6 38.7,16.2 82.7,24.4 131.7,24.4 52.4,0 98.3,-8.8 137.8,-26.4 39.4,-17.6 72.2,-42.1 98.4,-73.6 26.2,-31.5 45.8,-69.5 58.7,-113.9 12.9,-44.4 19.4,-93.5 19.4,-147.2 0,-57 -7.1,-107.9 -21.4,-152.6 -14.2,-44.8 -34.9,-82.6 -62.1,-113.4 -27.2,-30.8 -60.2,-54.4 -99,-70.6 -38.8,-16.3 -82.7,-24.4 -131.8,-24.4 -53,0 -99.1,8.8 -138.2,26.4 -39.1,17.5 -71.6,42.1 -97.5,73.5 -25.8,31.5 -45.2,69.5 -58.2,113.9 -12.9,44.5 -19.4,93.5 -19.4,147.2 z m 105.5,0 c 0,-37.5 4.1,-72.7 12.4,-105.6 8.3,-32.9 20.9,-61.9 37.8,-86.9 16.9,-25 38.4,-44.8 64.6,-59.2 26.2,-14.5 57.2,-21.8 93,-21.8 64.3,0 115.2,22.1 152.7,66.2 37.5,44.1 56.2,113.2 56.2,207.3 0,36.9 -4.2,71.8 -12.4,104.7 -8.3,32.9 -20.9,61.9 -37.8,86.9 -16.9,25 -38.5,44.9 -64.7,59.7 -26.2,14.8 -57.5,22.2 -94,22.2 -63.6,0 -114.2,-22.4 -151.7,-67.1 -37.4,-44.8 -56.1,-113.6 -56.1,-206.4"
         style="fill:#000000;fill-opacity:1;fill-rule:nonzero;stroke:none"
         id="path48" />
      <path
         d="m 26475.4,12709.1 h 420.7 v -87.5 h -321.2 v -209.8 h 293.4 v -87.6 h -293.4 v -223.8 h 326.2 v -87.5 h -425.7 v 696.2"
         style="fill:#000000;fill-opacity:1;fill-rule:nonzero;stroke:none"
         id="path50" />
      <path
         d="m 27797.2,12197 c 0,26.9 -8.9,48.3 -26.8,64.1 -17.9,15.8 -40.5,29.4 -67.7,40.9 -27.2,11.5 -56.3,22.4 -87.5,32.7 -31.2,10.2 -60.3,23.3 -87.5,39.2 -27.2,16 -49.8,36.5 -67.6,61.7 -18,25.2 -26.9,58 -26.9,98.5 0,56.3 20.7,101.8 62.2,136.2 41.4,34.5 100.6,51.8 177.5,51.8 44.4,0 85.2,-3.4 122.3,-10 37.1,-6.6 66.3,-15.2 87.5,-25.8 l -30.8,-83.6 c -16.6,8.1 -41.4,15.4 -74.6,22 -33.1,6.6 -69.6,9.8 -109.4,9.8 -45.1,0 -78.9,-9.5 -101.4,-28.6 -22.6,-19 -33.9,-41 -33.9,-66 0,-25.6 9,-46.3 26.9,-62.1 17.9,-15.7 40.5,-29.7 67.6,-41.9 27.2,-12.1 56.4,-23.8 87.6,-35.1 31.1,-11.3 60.3,-25.2 87.5,-41.8 27.2,-16.5 49.7,-36.9 67.6,-61.1 17.9,-24.2 26.9,-55.2 26.9,-93 0,-31.2 -6,-59.4 -17.9,-84.6 -12,-25.1 -29.2,-46.7 -51.8,-64.6 -22.5,-17.9 -49.7,-31.7 -81.5,-41.3 -31.8,-9.6 -68,-14.4 -108.4,-14.4 -54.4,0 -100.3,4.1 -137.8,12.4 -37.4,8.3 -65.8,17.1 -85,26.4 l 32.8,86.5 c 16.6,-8.2 41.6,-16.5 75.1,-25 33.5,-8.5 70.4,-12.8 110.9,-12.8 23.2,0 44.8,2.2 64.7,6.4 19.8,4.3 37.2,10.9 52.2,19.8 14.9,8.8 26.5,20.2 34.8,34 8.3,13.8 12.4,30.2 12.4,49.3"
         style="fill:#000000;fill-opacity:1;fill-rule:nonzero;stroke:none"
         id="path52" />
      <path
         d="m 29490.9,12324.2 h -353 v -311.3 h -99.5 v 696.2 h 99.5 v -297.3 h 353 v 297.3 h 99.5 v -696.2 h -99.5 v 311.3"
         style="fill:#000000;fill-opacity:1;fill-rule:nonzero;stroke:none"
         id="path54" />
      <path
         d="m 30165.3,12709.1 h 420.6 v -87.5 h -321.2 v -209.8 h 293.4 v -87.6 h -293.4 v -223.8 h 326.2 v -87.5 h -425.6 v 696.2"
         style="fill:#000000;fill-opacity:1;fill-rule:nonzero;stroke:none"
         id="path56" />
      <path
         d="m 31144.9,12702.2 c 13.9,2.6 29.3,4.9 46.2,6.9 17,2 34,3.7 51.3,5 17.2,1.3 34.4,2.3 51.7,3 17.2,0.6 33.5,1 48.7,1 33.2,0 65.1,-3.3 96,-10 30.8,-6.6 58,-17.6 81.5,-32.8 23.6,-15.3 42.5,-35.2 56.7,-59.8 14.3,-24.5 21.4,-54.7 21.4,-90.5 0,-27.9 -4.3,-53.1 -12.9,-75.7 -8.6,-22.6 -20.6,-42.5 -35.8,-59.7 -15.3,-17.3 -33.3,-31.7 -54.2,-43.3 -20.9,-11.6 -43.6,-20.4 -68.1,-26.4 l 51.7,-34.8 186.9,-272.2 h -114.3 l -206.9,293.4 -100.4,14 v -307.4 h -99.5 z m 200.9,-71.6 c -9.3,0 -18.7,0 -28.3,0 -9.7,0 -19.1,-0.4 -28.4,-1 -9.3,-0.7 -17.9,-1.4 -25.8,-2 -8,-0.7 -14.3,-1.7 -18.9,-3 v -240.7 h 81.5 c 23.9,0 45.9,2.5 66.1,7.5 20.3,4.9 37.8,12.6 52.8,22.8 14.9,10.3 26.6,23.7 35.3,40.3 8.6,16.6 12.9,36.8 12.9,60.7 0,35.8 -12.6,64 -37.8,84.5 -25.2,20.6 -61.7,30.9 -109.4,30.9"
         style="fill:#000000;fill-opacity:1;fill-rule:nonzero;stroke:none"
         id="path58" />
      <path
         d="m 32192.2,12709.1 h 420.7 v -87.5 h -321.3 v -209.8 h 293.4 v -87.6 h -293.4 v -223.8 h 326.2 v -87.5 h -425.6 v 696.2"
         style="fill:#000000;fill-opacity:1;fill-rule:nonzero;stroke:none"
         id="path60" />
      <path
         d="m 19024.9,18643.6 c 225.1,-110.7 468.6,-189.6 724.7,-230.5 211.7,-653.4 677.7,-1192.7 1281,-1501 -943.4,162.8 -1711.7,839.8 -2005.7,1731.5 z m 11528.8,947.6 C 30399,18087 29126.4,16912.1 27581.6,16912.1 c -466.2,0 -907.5,107 -1300.9,297.7 185.2,-36 376.5,-54.8 572.2,-54.8 1591.8,0 2894.6,1247.6 2983,2817.5 211.8,-167.7 454.4,-298.1 717.8,-381.3 z m -11563.6,-930.1 c -1211.6,209.2 -2134.5,1266.3 -2134.5,2537.3 0,98.4 5.5,195.6 16.3,291.2 -650.3,395.2 -1085.1,1110.3 -1085.1,1926.2 0,1243 1009.1,2252.2 2252.1,2252.2 385.5,0 748.5,-97 1065.9,-268 -110,16.5 -222.5,25.1 -337.1,25.1 -1243,0 -2252.2,-1009.2 -2252.2,-2252.2 0,-815.9 434.9,-1531 1085.2,-1926.2 -10.8,-95.6 -16.3,-192.8 -16.3,-291.2 0,-1000.3 571.6,-1868.2 1405.7,-2294.4 z M 31009.9,26251 c 1211.6,-209.2 2134.5,-1266.3 2134.5,-2537.3 0,-98.5 -5.5,-195.7 -16.3,-291.3 650.3,-395.1 1085.1,-1110.2 1085.1,-1926.2 0,-1243 -1009.1,-2252.1 -2252.1,-2252.1 -385.5,0 -748.5,97 -1065.9,268 110,-16.5 222.5,-25.1 337.1,-25.1 1243,0 2252.2,1009.2 2252.2,2252.2 0,815.9 -434.8,1531 -1085.2,1926.2 10.8,95.5 16.3,192.7 16.3,291.2 0,1000.3 -571.6,1868.1 -1405.7,2294.4 z m -8404.5,-4489.8 c 11.6,-5.7 23.2,-11.5 34.7,-17.4 -10.2,1.8 -20.4,3.4 -30.7,5.1 -1.3,4.1 -2.7,8.2 -4,12.3 z m 4789.2,1389.6 c -11.6,5.8 -23.2,11.6 -34.7,17.5 10.2,-1.8 20.5,-3.5 30.7,-5.1 1.3,-4.1 2.7,-8.3 4,-12.4 z m -7948.3,2170.1 c 154.7,1504.2 1427.3,2679.1 2972.1,2679.1 466.2,0 907.5,-107 1300.9,-297.8 -185.2,36 -376.5,54.9 -572.2,54.9 -1591.8,0 -2894.6,-1247.6 -2983,-2817.5 -211.8,167.7 -454.4,298 -717.8,381.3 z m 11528.8,947.5 c -225.1,110.8 -468.6,189.6 -724.7,230.6 -211.7,653.4 -677.7,1192.7 -1281,1501 943.4,-162.9 1711.7,-839.8 2005.7,-1731.6"
         style="fill:#bfbfbf;fill-opacity:1;fill-rule:evenodd;stroke:none"
         id="path62" />
      <path
         d="m 25000,25462.7 c 1659.5,0 3006.7,-1347.2 3006.7,-3006.7 0,-1659.4 -1347.2,-3006.6 -3006.7,-3006.6 -1659.4,0 -3006.7,1347.2 -3006.7,3006.6 0,1659.5 1347.3,3006.7 3006.7,3006.7 z M 23668.1,24355 c 411.6,493.7 1031.1,808 1723.4,808 1237.9,0 2242.9,-1005 2242.9,-2242.8 0,-692.4 -314.3,-1311.8 -808,-1723.4 324.3,389 519.5,889.3 519.5,1434.9 0,1237.9 -1005,2242.8 -2242.9,2242.8 -545.5,0 -1045.8,-195.1 -1434.9,-519.5 z m 952.7,244.2 c 209.3,0 379.2,-170 379.2,-379.3 0,-209.2 -169.9,-379.2 -379.2,-379.2 -209.3,0 -379.2,170 -379.2,379.2 0,209.3 169.9,379.3 379.2,379.3"
         style="fill:#ffba00;fill-opacity:1;fill-rule:evenodd;stroke:none"
         id="path64" />
    </g>
  </g>
</svg>
