<?xml version="1.0" encoding="UTF-8" standalone="no"?>
<!-- Created with Inkscape (http://www.inkscape.org/) -->

<svg
   version="1.1"
   id="svg2"
   width="2266.6667"
   height="2266.6667"
   viewBox="0 0 2266.6667 2266.6667"
   sodipodi:docname="shutterstock_1322761526.eps"
   xmlns:inkscape="http://www.inkscape.org/namespaces/inkscape"
   xmlns:sodipodi="http://sodipodi.sourceforge.net/DTD/sodipodi-0.dtd"
   xmlns="http://www.w3.org/2000/svg"
   xmlns:svg="http://www.w3.org/2000/svg">
  <defs
     id="defs6">
    <clipPath
       clipPathUnits="userSpaceOnUse"
       id="clipPath56">
      <path
         d="m 6651.67,7782.42 c -23.09,0 -44.5,7.34 -56.14,26.71 -7.1,11.83 -8.9,26.03 -9.82,39.8 -8.37,124.7 41.55,245.94 101.51,355.6 132.93,243.11 309.25,468.63 571.02,576.78 42.76,17.66 113.73,44.8 175.1,44.8 44.83,0 84.54,-14.49 104.35,-57.74 37.87,-82.71 -173.04,-213.18 -219.74,-259.06 -122.81,-120.64 -231.97,-255.15 -324.59,-400.25 -78.27,-122.63 -154.74,-261.69 -289.7,-315.99 -15.93,-6.41 -34.44,-10.65 -51.99,-10.65"
         id="path54" />
    </clipPath>
  </defs>
  <sodipodi:namedview
     id="namedview4"
     pagecolor="#ffffff"
     bordercolor="#000000"
     borderopacity="0.25"
     inkscape:showpageshadow="2"
     inkscape:pageopacity="0.0"
     inkscape:pagecheckerboard="0"
     inkscape:deskcolor="#d1d1d1" />
  <g
     id="g8"
     inkscape:groupmode="layer"
     inkscape:label="ink_ext_XXXXXX"
     transform="matrix(1.3333333,0,0,-1.3333333,0,2266.6667)">
    <g
       id="g10"
       transform="scale(0.1)">
      <path
         d="M 0,0 H 17000 V 17000 H 0 Z"
         style="fill:#fbc554;fill-opacity:1;fill-rule:nonzero;stroke:none"
         id="path12" />
      <path
         d="m 7598.56,3170 c -1.46,120 -188.16,120.3 -186.7,0 2.11,-173.4 1.2,-346.8 -3.04,-520.2 -2.05,-83.8 -4.86,-167.7 -8.41,-251.5 -1.9,-44.7 -4.02,-89.4 -6.34,-134.1 -0.81,-15.4 0.85,-45.5 -0.79,-69.2 -4.52,0 -8.76,0.1 -11.92,0 -22.79,-1.2 -45.59,-1.8 -68.38,-2.8 -46.59,-2.2 -93.99,-5.8 -139.54,-16.2 -86.15,-19.7 -215.25,-91.1 -195.02,-197.1 23.89,-125.2 185.51,-115.2 281.72,-100.4 102.35,15.7 193.61,62 273.8,126.2 24.8,19.8 31.72,53 25.26,83.8 3.72,7.7 6.93,16 9.35,25.3 17.08,65.4 11.93,141.9 15.15,209.1 13.51,282.1 18.3,564.6 14.86,847.1"
         style="fill:#343434;fill-opacity:1;fill-rule:nonzero;stroke:none"
         id="path14" />
      <path
         d="m 9375.17,3170 c 1.45,120 188.16,120.3 186.7,0 -2.11,-173.4 -1.21,-346.8 3.03,-520.2 2.05,-83.8 4.87,-167.7 8.42,-251.5 1.9,-44.7 4.01,-89.4 6.34,-134.1 0.81,-15.4 -0.85,-45.5 0.79,-69.2 4.51,0 8.76,0.1 11.91,0 22.8,-1.2 45.6,-1.8 68.39,-2.8 46.58,-2.2 93.99,-5.8 139.53,-16.2 86.16,-19.7 215.22,-91.1 195.03,-197.1 -23.89,-125.2 -185.51,-115.2 -281.73,-100.4 -102.34,15.7 -193.6,62 -273.79,126.2 -24.8,19.8 -31.72,53 -25.26,83.8 -3.72,7.7 -6.93,16 -9.35,25.3 -17.08,65.4 -11.94,141.9 -15.15,209.1 -13.52,282.1 -18.3,564.6 -14.86,847.1"
         style="fill:#343434;fill-opacity:1;fill-rule:nonzero;stroke:none"
         id="path16" />
      <path
         d="m 13690.6,8652.38 c -7.8,51.04 -75.9,85.27 -122.3,69.43 -147.3,-50.34 -211.7,-197.83 -191.1,-345.48 5.3,-38.66 15.1,-75.71 29,-112.16 11.8,-31.11 33.9,-66.24 34.6,-100.02 1.3,-53.88 -29.5,-119.49 -48.6,-169.02 -79.3,-206.17 -227.6,-392.43 -407.2,-520.38 -108,-77 -226.2,-135.52 -353.7,-172.26 -122.7,-35.36 -70.5,-227.28 52.9,-191.73 235.7,67.91 451.2,201.31 618.4,380.83 82.4,88.52 154.8,188.08 211.3,295.07 57.8,109.29 116.8,240.3 124.8,365.37 0.5,7.77 0.4,15.38 0,22.92 1.5,3.12 2.9,6.3 4.2,9.56 60.1,149.86 72.1,309.2 47.7,467.87"
         style="fill:#343434;fill-opacity:1;fill-rule:nonzero;stroke:none"
         id="path18" />
      <path
         d="m 3299.02,6067.8 c 7.84,-51.1 75.94,-85.3 122.3,-69.5 147.33,50.4 211.73,197.9 191.17,345.5 -5.39,38.7 -15.11,75.7 -29.02,112.2 -11.88,31.1 -33.91,66.2 -34.68,100 -1.23,53.9 29.58,119.5 48.64,169 79.35,206.2 227.59,392.45 407.18,520.4 108.06,76.99 226.19,135.52 353.69,172.26 122.72,35.36 70.53,227.28 -52.86,191.72 -235.69,-67.91 -451.25,-201.3 -618.37,-380.83 -82.41,-88.51 -154.87,-188.07 -211.37,-295.05 -57.71,-109.3 -116.78,-240.3 -124.75,-365.4 -0.5,-7.8 -0.37,-15.4 0.01,-22.9 -1.52,-3.1 -2.94,-6.3 -4.25,-9.6 -60.04,-149.8 -72.03,-309.2 -47.69,-467.8"
         style="fill:#343434;fill-opacity:1;fill-rule:nonzero;stroke:none"
         id="path20" />
      <path
         d="m 6988.89,12725.7 c -114.45,622.5 -167.53,1254.9 -158.44,1887.9 0.97,67.3 -72.46,118.9 -134.8,113.7 -72.59,-6.1 -112.75,-67.2 -113.72,-134.8 -2.77,-193.4 0.33,-386.7 9.13,-579.7 -171.1,-33.8 -342.21,-67.6 -513.31,-101.4 -91.9,-18.2 -183.75,-36.5 -275.69,-54.5 -63.72,-12.4 -128.6,-25.3 -193.58,-26.3 -65.3,263.6 -118.74,530.2 -159.9,799.1 -10.19,66.5 -64.46,119.6 -134.8,113.7 -63.72,-5.4 -123.95,-68 -113.72,-134.8 112.79,-736.8 311.82,-1459 595.78,-2148.3 60.91,-147.8 296.1,-64.7 234.73,84.3 -139.96,339.7 -259.43,687.3 -357.57,1040.7 134.89,10.6 269.3,46.6 400.7,72.6 177.31,35 354.62,70.1 531.93,105.1 25.39,-354.8 70.36,-708.2 134.75,-1058.4 12.16,-66.2 63.02,-119.8 134.8,-113.7 62.11,5.2 125.95,68.2 113.71,134.8"
         style="fill:#343434;fill-opacity:1;fill-rule:nonzero;stroke:none"
         id="path22" />
      <path
         d="m 8828.63,12988.8 c 11.27,668.9 116.46,1334.5 305.48,1976 19.06,64.7 -38.31,134 -99.7,145.5 -71.89,13.4 -126.3,-34.9 -145.42,-99.7 -195.65,-664 -297.21,-1350.9 -308.87,-2042.8 -1.14,-67.4 72.58,-119 134.79,-113.8 72.73,6.2 112.59,67.3 113.72,134.8"
         style="fill:#343434;fill-opacity:1;fill-rule:nonzero;stroke:none"
         id="path24" />
      <path
         d="m 9531.09,12757.4 c 50.56,732.8 162.09,1460.4 333.41,2174.7 37.45,156.2 -207.76,201.5 -245.12,45.8 -171.31,-714.4 -282.85,-1442 -333.4,-2174.8 -4.63,-67.2 28,-132.1 99.69,-145.4 60.34,-11.3 140.76,32 145.42,99.7"
         style="fill:#343434;fill-opacity:1;fill-rule:nonzero;stroke:none"
         id="path26" />
      <path
         d="m 12190.2,14048 c 26.7,158.1 -218.4,204.3 -245.2,45.7 -67.6,-400.5 -174.6,-792.7 -322.6,-1171.1 -24.5,-62.6 -6.5,-135.6 57.4,-166.7 56.9,-27.6 142.1,-5.5 166.8,57.5 156.1,398.9 272.2,812.2 343.6,1234.6"
         style="fill:#343434;fill-opacity:1;fill-rule:nonzero;stroke:none"
         id="path28" />
      <path
         d="m 11643.8,12456.3 c -157.7,29.4 -203.7,-215.7 -45.7,-245.1 157.7,-29.5 203.7,215.6 45.7,245.1"
         style="fill:#343434;fill-opacity:1;fill-rule:nonzero;stroke:none"
         id="path30" />
      <path
         d="m 7810.83,13782.6 c 43.61,-21.8 73.59,-71 31.6,-108.5 -74,-66.2 -206.56,-18.7 -287.64,2.4 -13.11,3.4 -26.33,3.9 -39.21,2.1 18.49,18.3 38.41,35.4 60.09,50.5 62.38,43.4 159.54,91.3 235.16,53.5 z m 199.15,-612.4 c -137.14,-98.7 -335.41,-177.5 -488.04,-64.6 -128.66,95.2 -170.65,271.4 -110.54,417.2 12.14,-44.7 50.06,-79 97.67,-91.4 125.52,-32.7 263.09,-60.3 388.11,-9.7 112.77,45.6 204.1,141.1 214.68,266.1 10.7,126.5 -62.4,240.8 -168.13,305.3 -109.89,67.1 -250.94,61.3 -368.07,16.7 -220.42,-83.9 -395.14,-294.4 -433.2,-527.7 -36.25,-222.1 58.83,-458.8 246.17,-586.3 240.28,-163.5 540.52,-90.9 762.34,68.8 130.26,93.7 -10.43,299.6 -140.99,205.6"
         style="fill:#343434;fill-opacity:1;fill-rule:nonzero;stroke:none"
         id="path32" />
      <path
         d="m 10643.5,12890 c -108.9,-137 -283.2,-36.5 -398.2,40 -66.9,44.6 -112.1,76.4 -95.7,160.7 14.2,73.2 50.2,144.6 98.2,201.4 90.1,106.3 251.3,159.8 365.4,57.8 3.5,-3.2 7.1,-6 10.7,-8.7 7.5,-30.3 28.3,-57.7 66.4,-74.3 129.9,-56.7 12.2,-302.6 -46.8,-376.9 z m 169.2,594.8 c -6.3,18.9 -17.9,37.2 -36.3,53.7 -163.5,146.1 -409.2,146.8 -589.2,30.5 -170.8,-110.4 -303.09,-338.8 -290.76,-545.2 7,-117.3 74.82,-205.3 168.16,-270.4 91.9,-64 186.5,-122.5 293.8,-156.6 224.9,-71.6 428.6,26.8 539.2,229.5 110.5,202.4 165,537.2 -84.9,658.5"
         style="fill:#343434;fill-opacity:1;fill-rule:nonzero;stroke:none"
         id="path34" />
      <path
         d="M 11485,10231.1 C 12180.5,9468.42 12604.7,8453.97 12604.7,7340.44 12604.7,4970.3 10683.3,3049 8313.2,3049 c -1166.67,0 -2224.61,465.5 -2998.17,1221 784.84,-860.7 1915.25,-1400.8 3171.84,-1400.8 2370.13,0 4291.43,1921.4 4291.43,4291.48 0,1203.44 -495.3,2291.18 -1293.3,3070.42"
         style="fill:#ebeade;fill-opacity:1;fill-rule:nonzero;stroke:none"
         id="path36" />
      <path
         d="m 12604.7,7340.44 c 0,1113.53 -424.2,2127.98 -1119.7,2890.66 -773.5,755.5 -1831.46,1221.1 -2998.13,1221.1 -2370.12,0 -4291.47,-1921.4 -4291.47,-4291.52 0,-1113.58 424.13,-2127.98 1119.63,-2890.68 773.56,-755.5 1831.5,-1221 2998.17,-1221 2370.1,0 4291.5,1921.3 4291.5,4291.44"
         style="fill:#fbfbf4;fill-opacity:1;fill-rule:nonzero;stroke:none"
         id="path38" />
      <path
         d="m 10129.7,8662.55 c -34.1,37.26 -69.5,73.25 -106.1,108.11 265.6,-366.55 422.2,-817.2 422.2,-1304.46 0,-1229.3 -996.54,-2225.9 -2225.86,-2225.9 -595.65,0 -1136.64,234 -1536.1,615.1 404.49,-557.8 1061.35,-920.6 1803.03,-920.6 1229.31,0 2225.83,996.6 2225.83,2225.89 0,578.79 -220.9,1105.97 -583,1501.86"
         style="fill:#f7a723;fill-opacity:1;fill-rule:nonzero;stroke:none"
         id="path40" />
      <path
         d="m 10445.8,7466.2 c 0,487.26 -156.6,937.91 -422.2,1304.46 -399.5,381.5 -940.69,615.9 -1536.73,615.9 -1229.33,0 -2225.88,-996.56 -2225.88,-2225.87 0,-418.19 115.38,-809.49 315.99,-1143.79 33.3,-55.5 69,-109.3 106.86,-161.5 399.46,-381.1 940.44,-615.1 1536.1,-615.1 1229.32,0 2225.86,996.6 2225.86,2225.9"
         style="fill:#f9b935;fill-opacity:1;fill-rule:nonzero;stroke:none"
         id="path42" />
      <path
         d="m 7308.03,7340.44 c 0,112.89 91.52,204.4 204.41,204.4 112.89,0 204.4,-91.51 204.4,-204.4 0,-112.89 -91.51,-204.4 -204.4,-204.4 -112.89,0 -204.41,91.51 -204.41,204.4"
         style="fill:#343434;fill-opacity:1;fill-rule:nonzero;stroke:none"
         id="path44" />
      <path
         d="m 9256.88,7340.44 c 0,112.89 91.53,204.4 204.41,204.4 112.89,0 204.41,-91.51 204.41,-204.4 0,-112.89 -91.52,-204.4 -204.41,-204.4 -112.88,0 -204.41,91.51 -204.41,204.4"
         style="fill:#343434;fill-opacity:1;fill-rule:nonzero;stroke:none"
         id="path46" />
      <path
         d="m 8720.91,7223.42 c 0,-129.26 -104.79,-234.02 -234.04,-234.02 -129.27,0 -234.05,104.76 -234.05,234.02 h 468.09"
         style="fill:#343434;fill-opacity:1;fill-rule:nonzero;stroke:none"
         id="path48" />
      <g
         id="g50">
        <g
           id="g52"
           clip-path="url(#clipPath56)">
          <path
             d="m 6577.34,7782.42 h 998.223 V 8826.11 H 6577.34 Z"
             style="fill:#fcd67f;fill-opacity:1;fill-rule:nonzero;stroke:none"
             id="path58" />
        </g>
      </g>
      <path
         d="m 5399.14,9860.76 c 79.6,18.15 158.83,-31.67 176.97,-111.27 18.15,-79.6 -31.67,-158.84 -111.27,-176.98 -79.6,-18.14 -158.83,31.67 -176.97,111.27 -18.15,79.6 31.67,158.84 111.27,176.98"
         style="fill:#ebeade;fill-opacity:1;fill-rule:nonzero;stroke:none"
         id="path60" />
      <path
         d="m 5107.71,9515.2 c 39.8,9.07 79.42,-15.84 88.5,-55.64 9.07,-39.8 -15.84,-79.41 -55.64,-88.49 -39.8,-9.07 -79.42,15.84 -88.49,55.64 -9.07,39.8 15.84,79.42 55.63,88.49"
         style="fill:#ebeade;fill-opacity:1;fill-rule:nonzero;stroke:none"
         id="path62" />
      <path
         d="m 5382.8,9375.5 c 24,5.48 47.89,-9.55 53.37,-33.55 5.47,-24.01 -9.55,-47.9 -33.56,-53.37 -24,-5.47 -47.9,9.55 -53.37,33.55 -5.47,24.01 9.55,47.9 33.56,53.37"
         style="fill:#ebeade;fill-opacity:1;fill-rule:nonzero;stroke:none"
         id="path64" />
      <path
         d="m 10327,4234.3 c -52.2,63.4 -43.2,157.1 20.2,209.4 63.4,52.2 157.1,43.2 209.4,-20.2 52.2,-63.4 43.2,-157.1 -20.2,-209.4 -63.4,-52.2 -157.1,-43.2 -209.4,20.2"
         style="fill:#ebeade;fill-opacity:1;fill-rule:nonzero;stroke:none"
         id="path66" />
      <path
         d="m 10769.3,4128.3 c -26.1,31.7 -21.6,78.5 10.1,104.6 31.7,26.2 78.6,21.7 104.7,-10 26.1,-31.7 21.6,-78.6 -10.1,-104.7 -31.7,-26.1 -78.6,-21.6 -104.7,10.1"
         style="fill:#ebeade;fill-opacity:1;fill-rule:nonzero;stroke:none"
         id="path68" />
      <path
         d="m 10770.8,4438.7 c -15.8,19.1 -13.1,47.4 6,63.1 19.1,15.8 47.4,13 63.2,-6.1 15.7,-19.1 13,-47.4 -6.1,-63.1 -19.1,-15.8 -47.4,-13 -63.1,6.1"
         style="fill:#ebeade;fill-opacity:1;fill-rule:nonzero;stroke:none"
         id="path70" />
    </g>
  </g>
</svg>
